<?xml version="1.0" encoding="utf-8"?>
<!-- Generator: Adobe Illustrator 19.2.1, SVG Export Plug-In . SVG Version: 6.00 Build 0)  -->
<svg version="1.1" id="layer" xmlns="http://www.w3.org/2000/svg" xmlns:xlink="http://www.w3.org/1999/xlink" x="0px" y="0px"
	 viewBox="0 0 652 652" style="enable-background:new 0 0 652 652;" xml:space="preserve">
<style type="text/css">
	.st0{fill:#002B5C;stroke:#E31837;stroke-width:6.862;}
	.st1{fill:#002B5C;}
	.st2{fill:#E31837;}
	.st3{fill:#C4CED4;}
	.st4{fill:#FFFFFF;}
	.st5{fill:#121212;}
	.st6{fill:#ED1C24;}
</style>
<path class="st0" d="M482.8,319.7c0,99.5-77.3,180.1-172.6,180.1s-172.6-80.6-172.6-180.1c0-2.5,0.1-5,0.2-7.6h-53
	c-0.1,2.5-0.1,5-0.1,7.6c0,131.8,101,238.6,225.6,238.6c124.6,0,225.6-106.8,225.6-238.6c0-2.5,0-5-0.1-7.6h-53
	C482.7,314.7,482.8,317.2,482.8,319.7z"/>
<g>
	<path class="st1" d="M612.3,271.8L612.3,271.8l-2.6-7.1h-3.9v10.9h2.2v-8.7h0.1l3.1,8.7h2.2l3.2-8.7h0.1v8.7h2.2v-10.9H615
		L612.3,271.8z M595,266.6h3.3v9h2.2v-9h3.3v-1.9H595L595,266.6z"/>
</g>
<g>
	<path class="st1" d="M433.1,137c1.4-1.8,0.9-2.7-0.1-3.5l-1.3-1l-3.3,4.4l1.4,1C430.9,138.8,432,138.4,433.1,137L433.1,137z
		 M283.2,97.4l-0.5,7.2l2.7-0.3L283.2,97.4z M343.3,97.6c0.4-2.2-0.4-2.8-1.8-3.1l-1.6-0.3l-0.9,5.5l1.7,0.3
		C342.2,100.3,343,99.4,343.3,97.6L343.3,97.6z M287.7,226.7c-1.8-14.4-8.8-26.8-18.9-35.7c1.4,4.1,2.4,8.4,2.9,12.8
		c-5.3-0.6-10.7-0.4-16,0.6C268.8,208,279.8,214.9,287.7,226.7z"/>
	<path class="st1" d="M287,233.6c-7.6-0.3-26-15.8-30.3-19.8c-4.3-4-6.6-6.9-10.6-7.8c-11.3-2.6-17.2,6.5-17.2,6.5s7.3,1.4,13.7,4.6
		c-2.4,4.1-3.6,8.8-3.5,13.6c0.2,14.5,12.2,26.1,26.7,25.8c5.6-0.1,10.9-1.9,15.4-5.3c-1.3,10.5,2.4,13.1,2.4,13.1
		c6.9-18.4,16.7-31.9,16.7-31.9S296.2,233.9,287,233.6L287,233.6z M266.7,252.4c-11.1,0.2-20.3-8.7-20.4-19.8c-0.1-4,1.1-7.8,3.1-11
		c1.4,1,2.9,2,4.3,3c-1.4,2.4-2.2,5.1-2.1,7.9c0,3.1,1,6,2.9,8.5c0.4-1,1.1-1.9,2.1-2.5c-1-1.7-1.6-3.6-1.6-5.6
		c0-2.2,0.6-4.4,1.8-6.3c1.3,0.8,2.7,1.7,4.2,2.6c-2.4,3.2-1.8,7.7,1.4,10.1c1.3,1,2.9,1.5,4.5,1.5c3.1,0,5.8-2.1,6.7-5
		c1.1,0.5,2.3,1,3.4,1.4c-1.7,4.2-5.8,6.9-10.3,7c-1,0-2.1-0.1-3-0.4c-0.3,1-0.8,1.9-1.7,2.6c1.6,0.5,3.2,0.8,4.9,0.7
		c5.8-0.1,11-3.5,13.3-8.8c1.7,0.6,3.4,1.1,5.1,1.4C282.2,247,275.1,252.2,266.7,252.4L266.7,252.4z M344.3,203.8
		c0.5-4.4,1.4-8.6,2.9-12.8c-10.1,8.9-17.1,21.3-18.9,35.7c7.8-11.8,18.9-18.7,32-22.3C355,203.5,349.6,203.3,344.3,203.8z"/>
</g>
<path class="st2" d="M625,348.4c-2.4-4.9-6.7-10.3-14.4-13.2c-0.5-10.1-3.2-19.5-5.9-26.4c4.5-7.9,11-21.6,11.3-22.2l3.9-8.3h-32.1
	c1.8-5.1,7.6-21.2,7.6-21.2l-13.2,3.9c0.1-0.3,4.1-9.6,4.1-9.6l-8.7,0h-6.8l-5.2-11.2c-0.4-0.9-9.2-19.2-30-35
	c2.9-1.3,7.6-3.4,7.6-3.4l-9.6-5.8c-0.6-0.4-9.6-5.6-24.5-9.6c-41.8-71-118-114.8-200.7-114.8c-41.8,0-82.7,11.2-118.5,32.4
	c-32.9,19.5-60.5,46.8-80.4,79.4c-6.2,1-9.9,2.2-10.3,2.3l-10.7,3.5l6.7,5c-23.8,10.8-36.5,26.8-37,27.5l-7.8,10c0,0,7-0.4,10.2-0.5
	c-0.4,0.9-0.8,1.8-1.2,2.7c-17.5-0.9-37.7,2.6-46.4,22.9c-1.7,4-2.6,8.2-2.6,12.4c0,7,2.5,13.9,7.3,19.7
	c6.4,7.7,15.8,12.1,24.5,13.9c-3.7,8.9-6.7,19.6-7.1,21.1l-2.4,8.9l9.1-1.7c2.5-0.5,7.4-1.4,12-2.2c-6.8,18.9-11.6,36.1-14.1,51.4
	c0,0-4.1,24.7-4.1,24.7h71l1.9-18.6c3.1,1.6,6.6,2.6,10.4,3.1c7.1,1,14.6-0.3,22-3.7c7.8,3.8,16.1,5.8,24.1,5.4
	c2.8-0.1,5.6-0.6,8.9-1.4h27.2c-7.7,8.7-13.6,19.6-17.7,32.6l-3.3,10.6c0,0,12.9-4,14.6-4.5c0,0.6-0.1,1.2-0.1,1.8c0,0.3,0,0.6,0,1
	c0.3,13.2,5.6,25.5,15.1,34.7c9.5,9.2,22,14.1,35.3,13.8c5.3-0.1,10.5-1,15.5-2.8c2.3,0.4,4.6,0.7,6.9,0.7
	c24.9,0.7,45.7-19,46.5-43.9c0-1.3,0-2.6-0.1-3.9c21.3,10.3,49.9,20.5,69.8,26.8c-4.2,1.2-8.4,2.5-8.4,2.5l14.8,6.2
	c21.4,9.1,53.7,16.3,82.8,14.2c-1.1,2.3-3.8,7.4-3.8,7.4l10.2-0.7c34.7-2.4,62.5-17.4,77-28.3v5.8l8.6-4.9
	c14-7.9,32.4-27.6,45.9-49.1c7.3-11.7,17.7-31.1,17.7-48C627.8,357.2,627,352.6,625,348.4L625,348.4z M561.4,454
	c0-4.9-0.6-8.2-0.6-8.2c-4.7,5.8-36.1,31.6-82.5,34.8c0.7-1.3,5.5-8.2,5.5-8.2c-31.6,5.8-69.9-2.8-92-12.2c1.8-0.6,8.4-2.5,11.5-3.5
	c-15-4-69.6-21.3-98-37.5c1.7,4.6,2.4,9.5,2.3,14.4c-0.6,21.7-18.8,38.9-40.5,38.3c-2.5-0.1-5.1-0.4-7.5-0.9
	c-4.8,1.9-9.9,2.9-15.1,3c-24.1,0.5-44.1-18.7-44.5-42.9c-0.1-3.7,0.3-7.4,1.2-10.9l-12.6,3.9c6-19.1,15.7-31.8,27.2-40.2h-42.8
	c-2.8,0.7-5.6,1.3-8.4,1.4c-8,0.4-16.3-1.8-23.7-6c-7.1,3.7-14.5,5.3-21.3,4.3c-7.4-1-12-4-15.8-7.9c-0.4,3.1-0.8,6.2-1.1,9.4
	l-1.4,13.9H42.1l3-18c2.9-17.4,8.7-37.4,17.3-59.6c-4.5,0.5-22,3.9-22,3.9s5.4-19.6,10.4-27.6c-9.5,0.2-21.7-4-28.9-12.7
	c-6.2-7.5-7.6-17.2-3.8-26.1c8-18.6,28.2-20.6,44.9-19.1c1.6-4.5,3.8-9.1,7-13.8c-3-1.1-7.3-0.8-7.3-0.8s14.8-18.9,42.6-29
	c-1.8-3.1-4.4-5-4.4-5s4.5-1.4,12.1-2.5c39.5-66.6,112.2-111.3,195.3-111.3c84.2,0,157.7,45.9,196.9,114c15.8,3.9,25.3,9.5,25.3,9.5
	s-3,1.3-5.4,3.9c24.9,16,35.1,37.7,35.1,37.7s-4.1-1.2-7.3-0.8c2,5.4,3.2,10.5,3.8,15.3h20.9c-1,2.4-4.7,11.1-5.4,12.8
	c1.3-0.3,14-4.1,14-4.1l-6.6,18.2h31.3c0,0-8.2,17.4-12.5,24.2c3.3,7.9,6.6,18.8,6.6,30.3c0,0.3,0,0.7,0,1
	c6.9,1.4,11.9,5.1,14.9,11.3C632.6,377.6,587.6,439.2,561.4,454L561.4,454z"/>
<path class="st2" d="M540.8,418.1c29.5-13.2,42.7-32.9,47.9-43.2c-7.5,6.5-16.2,10.2-25.7,10.6c-8,0.4-16.2-1.8-23.7-6
	c-7.8,4.1-15.6,5.2-22.8,4.2c-6.2-0.9-10.8-3.6-13.1-5.3c-1,1.4-3.9,5.2-5.3,6.9c-6,7-19.1,20.4-37.9,27.3
	C486.5,422.5,519.4,427.6,540.8,418.1L540.8,418.1z M502.5,389.1c0.6-0.7,1.5-1.8,2.4-3c3.4,1.7,7,2.8,10.8,3.4
	c8,1.1,16.1-0.2,23.6-3.5c7.8,3.8,16,5.7,24,5.4c2.5-0.1,5-0.4,7.5-1c-7.2,7.7-17.6,15.9-32.3,22.5c-15.9,7.1-40.1,5.3-62.8-1.1
	C488.3,404.3,497.4,395,502.5,389.1L502.5,389.1z M446.4,186.6c-33.3-39-82.8-63.7-138.2-63.7c-55.5,0-105.3,25-138.6,64.3
	c5,2.1,9.7,4.7,14.2,7.6c2.9-10.9,10-24.7,26.7-36.4c1-0.1,24.1-1.3,42.4,10.2c9.3-3.6,16.2-5.8,23-7.3c-6.5-5.2-15.4-9-15.4-9
	s34.9-2.7,61.7,5.6c-3-4.2-10.2-10.9-10.2-10.9s35.8,10.7,51.7,21.4c18.2-11.4,41.4-10.1,42.4-10c15.9,11.1,23.1,24.3,26.3,34.9
	C436.9,190.8,441.6,188.5,446.4,186.6L446.4,186.6z M363.8,161.6c-17.4-10.3-48.8-19.8-50.2-20.2l-23.5-7c0,0,10.3,9.7,14.7,13.8
	c-22.3-3.3-43.6-1.8-44.7-1.7l-23.4,1.8l21.5,9.3c0,0,1.5,0.6,3.5,1.7c-2.6,0.8-5.3,1.8-8.2,2.9c-12-6.7-25.3-8.8-34-9.4
	c2.6-1.5,5.3-3,8-4.4c25.1-13,52.3-19.6,80.8-19.6c31.7,0,62.3,8.4,88.8,24C388.6,153.3,375.6,155.3,363.8,161.6L363.8,161.6z"/>
<path class="st3" d="M380.9,386.7c-1.7-3.4-3.1-6.9-4.1-10.6c-3.2,2.3-6.7,4.2-10.5,5.6C371.1,383.3,375.9,384.9,380.9,386.7
	L380.9,386.7z"/>
<path class="st1" d="M619.7,350.9c-3-6.2-8-9.9-14.9-11.3c0-0.3,0-0.7,0-1c0-11.6-3.4-22.5-6.6-30.3c4.3-6.7,12.5-24.2,12.5-24.2
	h-31.3l6.6-18.2c0,0-12.8,3.8-14,4.1c0.7-1.7,4.4-10.5,5.4-12.8h-20.9c-0.5-4.8-1.7-9.9-3.8-15.3c3.2-0.4,7.3,0.8,7.3,0.8
	S550,221,525,205c2.4-2.7,5.4-3.9,5.4-3.9s-9.5-5.6-25.3-9.5c-39.2-68.1-112.7-114-196.9-114c-83.1,0-155.8,44.7-195.3,111.3
	c-7.6,1.1-12.1,2.5-12.1,2.5s2.6,1.9,4.4,5c-27.9,10.1-42.6,29-42.6,29s4.3-0.3,7.3,0.8c-3.1,4.7-5.4,9.4-7,13.8
	c-16.7-1.5-36.8,0.5-44.9,19.1c-3.8,8.9-2.4,18.6,3.8,26.1c7.2,8.6,19.4,12.8,28.9,12.7c-5.1,8-10.4,27.6-10.4,27.6s17.5-3.3,22-3.9
	c-8.6,22.2-14.4,42.3-17.3,59.6l-3,18H101l1.4-13.9c0.3-3.1,0.7-6.3,1.1-9.4c3.8,3.9,8.4,6.9,15.8,7.9c6.8,0.9,14.1-0.6,21.3-4.3
	c7.5,4.2,15.7,6.4,23.7,6c2.9-0.1,5.7-0.7,8.4-1.4h42.8c-11.4,8.3-21.1,21.1-27.2,40.2l12.6-3.9c-0.8,3.6-1.2,7.2-1.2,10.9
	c0.5,24.1,20.4,43.3,44.5,42.9c5.2-0.1,10.3-1.1,15.1-3c2.4,0.5,4.9,0.9,7.5,0.9c21.8,0.6,39.9-16.5,40.5-38.3
	c0.1-4.9-0.6-9.8-2.3-14.4c28.4,16.3,83,33.5,98,37.5c-3.1,0.9-9.7,2.9-11.5,3.5c22.1,9.4,60.4,18,92,12.2c0,0-4.8,6.9-5.5,8.2
	c46.4-3.2,77.8-29,82.5-34.8c0,0,0.6,3.2,0.6,8.2C587.6,439.2,632.6,377.6,619.7,350.9L619.7,350.9z M377.7,326.6
	c-1.7,1.3-5.3,4-9.1,6.9c2.5-14.1,13.9-40.3,16.5-45.1c2.3,0.6,4.8,1.1,7.5,1.4C388.8,296.6,380.1,317.7,377.7,326.6z M380.9,386.7
	c-4.8-1.7-9.7-3.4-14.6-5c3.7-1.4,7.3-3.3,10.5-5.6C377.8,379.7,379.2,383.3,380.9,386.7L380.9,386.7z M410.4,243.2
	c0,0,5.3-0.6,8.4,5.4c0,0-4.1,2.6-4.8,9.2C414,257.7,407.8,251.6,410.4,243.2z M421,271.1c0,0-0.8-5.3,0.6-7.9
	c9.7,11.5,19.2,12.6,19.2,12.6c-2.4-4.6-2-8-2-8c4,4.5,9.2,7.5,14.8,9c-3.8,2.2-7.1,4.7-9.1,6.6c-15,14.2-34.9,50.6-29.1,74.7
	c2.1,8.8,7,15.2,14.4,19.1c13,6.7,35.8,5.2,60.1-4.6c-6.9,8.7-31.6,35.6-65.1,28.9c-15.1-3-25.2-9.8-30.8-20.7c-4-7.7-6-16.5-6-26.3
	c0-14.5,4.3-31.2,12.9-50c4.9-10.8,13.5-21.1,25.4-31.6c-19.9,4.9-42.7,5.1-49.7-6.9c-3.5-5.9-2.9-13.9,4.9-16.9
	c8.6-3.4,16.5,4.7,16.5,4.7s-3.8-0.9-4.9,0.9c-3.1,4.9,6.7,7.3,17,8C412.9,267.2,416.7,270.2,421,271.1L421,271.1z M432.7,266.7
	c0,0-10.6-5.7-8.1-19.1c0,0,6.2-0.1,10.4,4.9C435,252.4,429.7,259.5,432.7,266.7z M450.2,269.3c0,0-9.9-5.9-9.9-16.9
	c0,0,6.4-1.7,11.6,3.4C451.9,255.8,448.4,262,450.2,269.3z M480.9,261.4c2.6,0.2,4.6,0.1,6.2-0.2c3.9,4.3,6.3,9.9,6.9,15.9
	c0.7,7.3-2.6,14.3-9,17.3c-6.1,3-19.1-1.4-18.5-12.6c0.1-2.2,0.8-3.9,1.7-5.3c7.2,3,10.4,3.3,10.4,3.3
	C471.9,269,480.9,261.4,480.9,261.4L480.9,261.4z M470,271.7c0,0-10.3-4.8-10.9-16.8c0,0,6-3.5,12.7,2.7
	C471.8,257.6,467.8,262.9,470,271.7z M461.2,273.2c-1.3,0.5-2.6,1.1-4,1.7c-0.3-1.1-0.4-2.5-0.2-3.9
	C458.5,271.8,459.9,272.6,461.2,273.2z M498.1,385.3c1.4-1.7,4.3-5.5,5.3-6.9c2.3,1.6,6.9,4.4,13.1,5.3c7.2,1,15.1-0.1,22.8-4.2
	c7.5,4.2,15.7,6.3,23.7,6c9.4-0.4,18.2-4.1,25.7-10.6c-5.2,10.3-18.4,30.1-47.9,43.2c-21.3,9.5-54.3,4.4-80.6-5.5
	C478.9,405.7,492.1,392.4,498.1,385.3L498.1,385.3z M513.8,203.9c0,0-4.8,3.6-6.2,6.4c20.5,5.8,35.1,23.4,35.1,23.4s-5-0.5-7.4,0.8
	c5.6,8.1,8.2,15.9,9,22.7h-14.8c-9.7-14.4-23.7-19-23.7-19s3.7-2.2,8.2-2.8c-6.8-3.4-16.9-3.1-23.8,1c0,0-11.4,7.9-16.4,7.7
	c-4.3-0.2-7.4-3.1-8.8-5.4c-2,0.8-6.7,2.5-10.4,1.1c-4.2-1.6-5.9-4.3-6.7-6.2c-3.5,2.5-8.5,3.3-12.9,1.8c-3.4-1.2-5.8-3.6-6.8-6.7
	c-2.9,2.5-6.6,4.7-10.1,3.7c-0.6-0.2-1.2-0.4-1.8-0.7c-3.5-2.5-2-6.7-0.5-10c7.6-16.7,41.3-28.3,41.3-28.3s-3.4,6.7-3,10.6
	C476.9,194.5,513.8,203.9,513.8,203.9L513.8,203.9z M322.2,157.9c-26.7-8.3-61.7-5.6-61.7-5.6s8.9,3.8,15.4,9
	c-6.7,1.5-13.6,3.7-23,7.3c-18.3-11.5-41.4-10.2-42.4-10.2c-16.7,11.7-23.8,25.6-26.7,36.4c-4.5-2.9-9.3-5.5-14.2-7.6
	c33.3-39.3,83-64.3,138.6-64.3c55.3,0,104.8,24.7,138.2,63.7c-4.8,1.9-9.5,4.1-14,6.7c-3.2-10.6-10.3-23.8-26.3-34.9
	c-1-0.1-24.2-1.4-42.4,10C347.8,157.7,312,147,312,147S319.1,153.7,322.2,157.9L322.2,157.9z M443.1,153.7l0.3-0.6
	c0,0,0.6-0.4,0.6-0.4c0.7-0.4,1.4-0.9,1.9-1.5l4.2-4.4c1.1-1.1,1.9-2.8,1.9-2.9l0.4-0.9l7.2,6.9c1.1,1.1,2.9,1.9,2.9,1.9l0.9,0.4
	l-4.8,5l-0.4-0.9c0,0-0.9-1.7-2-2.8l-2.9-2.8c-0.7,0.7-3.1,3.3-3.8,4c0.4,0.4,0.8,0.8,0.8,0.8c1.1,1.1,2.8,1.9,2.9,1.9l0.9,0.4
	l-4.8,5l-0.4-0.9c0,0-0.9-1.7-2-2.8c0,0-0.4-0.4-0.8-0.8c-0.7,0.7-3.7,3.8-4.4,4.6c0.7,0.7,2.9,2.8,2.9,2.8c1.1,1.1,2.9,1.9,2.9,1.9
	l0.9,0.4l-4.8,4.9l-0.4-0.9c0,0-0.9-1.7-2-2.8l-7.2-7l0.9-0.4c0,0,1.7-0.9,2.8-2l4.2-4.4C442.4,154.9,442.8,154.3,443.1,153.7
	L443.1,153.7z M422,136.5l0.3-0.7l0.6-0.4c0.7-0.5,1.2-1,1.7-1.7l3.6-4.8c0.9-1.2,1.5-3.1,1.5-3.1l0.3-0.9l0.8,0.6l6.5,4.9
	c3,2.3,3,5.5-0.1,9.6c-1.6,2.1-3,3.2-5.1,3.7c-0.5,0.1-1,0-1.5,0l-2.7,7.6c-0.5,1.5-0.7,3.8-0.7,3.8l-0.1,1.3l-5.3-4l0.5-0.7
	c0.3-0.4,1.1-1.6,1.6-2.8l2.5-7.2l-1-0.7l-4.2,5.6c-0.9,1.2-1.5,3.1-1.5,3.1l-0.3,0.9l-5.5-4.1l0.8-0.5c0,0,1.6-1.1,2.5-2.3l3.7-4.9
	C421.4,137.8,421.7,137.1,422,136.5L422,136.5z M407.2,127.5l0.2-0.7l0.5-0.5c0.7-0.6,1.1-1.1,1.5-1.9l3.1-5.2
	c0.8-1.3,1.2-3.2,1.2-3.2l0.2-0.9l0.8,0.5l4.2,2.5l0.8,0.5l-0.7,0.6c0,0-1.5,1.2-2.3,2.6l-3.1,5.2c-0.5,0.8-0.7,1.4-0.9,2.2
	l-0.2,0.7l-0.5,0.5c-0.6,0.5-1.1,1.2-1.5,1.9l-3.1,5.2c-0.8,1.3-1.2,3.2-1.2,3.2l-0.2,0.9l-5.9-3.5l0.7-0.6c0,0,1.5-1.3,2.3-2.6
	l3.1-5.2C406.9,128.8,407.1,128,407.2,127.5z M377.8,126c0,0,1.3-1.4,2-2.8l2.6-5.5c0.4-0.7,0.6-1.5,0.7-2.3l0.1-0.7l0.5-0.5
	c0.6-0.7,0.9-1.2,1.3-2l2.6-5.5c0.7-1.4,0.9-3.3,0.9-3.3l0.1-1l6.2,2.9l-0.7,0.7c0,0-1.3,1.4-2,2.8c0,0-2.2,4.6-2.6,5.6
	c0.9,0.4,3.5,1.6,4.4,2l2.6-5.6c0.7-1.4,0.9-3.3,0.9-3.3l0.1-1l0.9,0.4l4.5,2.1l0.9,0.4l-0.7,0.7c0,0-1.3,1.4-2,2.8l-2.6,5.5
	c-0.3,0.7-0.6,1.5-0.7,2.3l-0.1,0.7c0,0-0.5,0.5-0.5,0.5c-0.5,0.6-1,1.3-1.3,2l-2.6,5.5c-0.7,1.4-0.9,3.3-0.9,3.3l-0.1,1l-6.2-2.9
	l0.7-0.7c0,0,1.3-1.4,2-2.8c0,0,2.5-5.4,3-6.4c-0.9-0.4-3.5-1.6-4.4-2c-0.8,1.7-3,6.4-3,6.4c-0.6,1.4-0.9,3.3-0.9,3.3l-0.1,1
	l-6.2-2.9L377.8,126L377.8,126z M356.3,113.9l0.8,0.6c0,0,1.6,1.1,3.1,1.6l2.3,0.7c1.5,0.5,2.6-1.1,3-2.5c0.7-2.5-0.3-3.1-1.3-3.4
	l-1.4-0.4c-3.6-1.1-4.7-4.2-3.1-9.2c0.8-2.5,1.8-4,3.5-5.2c1.7-1.2,3.4-0.8,5.1-0.3l2.8,0.9c1.5,0.4,3.4,0.4,3.4,0.4l1,0l-2,6.6
	l-0.8-0.6c0,0-1.6-1.1-3.1-1.6l-2.3-0.7c-1.4-0.4-2.3,0.3-2.9,2c-0.7,2.5,0.3,3.1,1.3,3.4l1.4,0.4c3.6,1.1,4.7,4.2,3.1,9.2
	c-0.8,2.7-2,4.6-3.6,5.7c-1.7,1.2-3.4,0.8-5.1,0.3l-2.8-0.9c-1.5-0.5-3.4-0.4-3.4-0.4l-1,0C354.3,120.4,356.3,113.9,356.3,113.9z
	 M331.1,114.1c0,0,0.9-1.7,1.1-3.2l1-6c0.1-0.8,0.1-1.6,0-2.4l-0.1-0.7l0.3-0.7c0.4-0.8,0.6-1.4,0.7-2.3l0.9-6
	c0.2-1.5-0.1-3.4-0.1-3.4l-0.2-0.9l1,0.2l8,1.3c3.7,0.6,5.2,3.5,4.4,8.5c-0.4,2.6-1.2,4.2-2.7,5.7c-1.5,1.4-3.2,1.3-5,1l-2.2-0.4
	l-1.1,7c-0.2,1.5,0.1,3.4,0.1,3.4l0.2,0.9l-6.8-1.1L331.1,114.1L331.1,114.1z M303.9,112.6c0,0,0.7-1.8,0.7-3.4l0.2-6.1
	c0-0.8-0.1-1.6-0.3-2.4l-0.2-0.7l0.2-0.7c0.3-0.8,0.4-1.5,0.4-2.4l0.2-6.1c0.1-1.5-0.5-3.4-0.5-3.4l-0.3-0.9l8,0.3l-0.2,0.8
	c0,0-0.2,0.7-0.2,1.7c0,0.5,0,1,0.1,1.6l1.1,5.5c0.7-2.4,1.5-5.4,1.5-5.4c0.2-1.1,0.3-2.2,0.1-3.3l-0.2-0.9l0.9,0l6.1,0.2l1,0
	l-0.3,0.9c0,0-0.7,1.8-0.7,3.4l-0.2,6.1c0,0.8,0,1.6,0.3,2.4l0.2,0.7l-0.2,0.7c-0.2,0.6-0.4,1.3-0.4,2.4l-0.2,6.1
	c-0.1,1.5,0.5,3.4,0.5,3.4l0.3,0.9l-6.9-0.2l0.3-0.9c0,0,0.7-1.8,0.7-3.3l0.3-6.9l-3.5,11.1l-2.7-11.3c-0.1,3.4-0.2,6.9-0.2,6.9
	c-0.1,1.5,0.5,3.4,0.5,3.4l0.3,0.9l-6.9-0.2L303.9,112.6L303.9,112.6z M277.1,115.1c0,0,0.7-2,0.8-3.5l0.4-6.1
	c0.1-0.8,0-1.6-0.2-2.4l-0.2-0.7l0.2-0.7c0.2-0.7,0.4-1.4,0.5-2.5l0.4-6.2c0.1-1.6-0.4-3.3-0.4-3.3l-0.2-0.8l0.8-0.1l6.3-0.8
	l0.8-0.1l0,0.8c0,0-0.1,1.9,0.4,3.3l1.8,5.9c0.3,1,0.7,1.7,1.1,2.3l0.4,0.6l0,0.7c0,0.8,0.1,1.5,0.4,2.3l1.8,5.9
	c0.5,1.5,1.6,3.2,1.7,3.2l0.6,0.9l-6.6,0.8l0-0.8c0,0,0-0.9-0.1-1.9c-0.1-0.5-0.2-1-0.3-1.5l-0.5-1.5l-4.5,0.6l-0.1,1.6
	c-0.1,1.6,0.4,3.3,0.4,3.3l0.2,0.8l-6.4,0.8C276.6,116.2,277.1,115.1,277.1,115.1z M251.3,94.7l-0.1,1c0,0-0.1,1.9,0.3,3.4
	c0,0,1.3,4.9,1.6,6c0.9-0.2,3.7-1,4.7-1.2c-0.3-1.1-1.6-6-1.6-6c-0.4-1.5-1.5-3.1-1.5-3.1l-0.5-0.8l0.9-0.2l4.8-1.3l0.9-0.2l-0.1,1
	c0,0-0.1,1.9,0.3,3.4l1.6,5.9c0.2,0.9,0.5,1.4,0.9,2.2l0.4,0.6l0,0.7c0,0.6,0,1.3,0.3,2.4l1.6,5.9c0.4,1.5,1.5,3.1,1.5,3.1l0.5,0.8
	l-6.6,1.8l0.1-1c0,0,0.1-1.9-0.3-3.4l-1.8-6.8l-4.7,1.2c0.3,1.1,1.8,6.8,1.8,6.8c0.4,1.5,1.5,3.1,1.5,3.1l0.5,0.8l-6.6,1.8l0.1-1
	c0,0,0.1-1.9-0.3-3.4l-1.6-5.9c-0.2-0.8-0.5-1.5-0.9-2.2l-0.4-0.6l0-0.7c0-0.8-0.1-1.6-0.3-2.4l-1.6-5.9c-0.4-1.5-1.5-3.1-1.5-3.1
	l-0.5-0.8C244.7,96.5,251.3,94.7,251.3,94.7z M200.2,116.3l0.3,0.8c0,0,0.3,1,0.9,1.9c0.2,0.4,0.4,0.7,0.7,1.1c0,0,2.9,3.7,5.3,6.7
	c-1.4-3.6-3-7.9-3-7.9c-0.1-0.3-0.3-0.7-0.5-1c-0.4-0.7-0.8-1.3-1.3-1.9l-0.5-0.6l6-3.3l0.3,0.8c0,0,0.3,1.1,0.9,2.1
	c0.2,0.3,0.4,0.6,0.6,0.9c0,0,2.8,3.7,5.1,6.8c-1.3-3.5-2.9-8-2.9-8c-0.1-0.4-0.3-0.8-0.5-1.1c-0.3-0.6-0.7-1.2-1.2-1.8l-0.5-0.6
	l0.7-0.4l4.3-2.4l1-0.5l0,1.1c0,0,0.1,2.1,0.6,3.5l2.1,5.8c0.3,0.8,0.6,1.4,1.1,2.1l0.4,0.6l0.1,0.7c0.1,0.7,0.1,1.4,0.5,2.4
	l2.1,5.8c0.5,1.5,1.7,2.9,1.7,2.9l0.5,0.6l-5.7,3.2l-0.3-0.7c-0.2-0.6-0.5-1.1-0.8-1.6c-0.3-0.5-0.6-0.9-0.9-1.4l-6.2-8.3
	c1.6,4.2,3.7,9.7,3.7,9.7c0.2,0.5,0.4,1,0.7,1.4c0.5,0.9,1,1.5,1,1.5l0.5,0.6L211,141l-0.3-0.8c0,0-0.6-1.8-1.6-3l-3.8-4.9
	c-0.5-0.7-1.1-1.2-1.8-1.7l-0.6-0.4c0,0-0.3-0.6-0.3-0.7c-0.3-0.7-0.7-1.4-1.2-2.1l-3.8-4.8c-1-1.2-2.7-2.4-2.7-2.4l-0.9-0.6
	C194.2,119.7,200.2,116.3,200.2,116.3z M179.8,130.1c1.2-0.9,2.3-2.5,2.3-2.5l0.5-0.8l4.1,5.5l-0.9,0.3c0,0-1.9,0.6-3.1,1.5
	c0,0-2.5,1.9-3.3,2.5c0.6,0.8,2.7,3.6,3.3,4.4c0.4-0.3,0.9-0.7,0.9-0.7c1.2-0.9,2.3-2.5,2.3-2.5l0.5-0.8l4.1,5.5l-0.9,0.3
	c0,0-1.8,0.6-3.1,1.5l-0.9,0.7c0.6,0.8,3.2,4.3,3.8,5.1c0.8-0.6,3.3-2.5,3.3-2.5c1.2-0.9,2.3-2.5,2.3-2.5l0.5-0.8l4.1,5.5l-0.9,0.3
	c0,0-1.8,0.6-3.1,1.5l-8,6l-0.3-0.9c0,0-0.6-1.8-1.5-3.1l-3.7-4.9c-0.5-0.6-1-1.2-1.7-1.7l-0.6-0.4l-0.3-0.7
	c-0.3-0.8-0.7-1.5-1.2-2.1l-3.7-4.9c-0.9-1.2-2.5-2.3-2.5-2.3l-0.8-0.5C171.8,136.1,179.8,130.1,179.8,130.1z M154.4,152.6l11.3,4.4
	l-5-4.8c-1.1-1.1-2.8-1.9-2.9-1.9l-0.9-0.4l0.7-0.7l3.4-3.6l0.7-0.7l0.4,0.9c0,0,0.9,1.7,2,2.8l4.4,4.2c0.6,0.6,1.2,1,2,1.4l0.6,0.3
	l0.4,0.6c0.3,0.5,0.7,1.2,1.5,1.9l4.4,4.2c1.1,1.1,2.8,1.9,2.9,1.9l0.9,0.4l-3.5,3.6c0,0-9.5-3.6-13.6-5.2c2.2,2.1,4.4,4.2,6.5,6.3
	c1.1,1.1,2.9,1.9,2.9,1.9l0.9,0.4l-4.8,4.9l-0.4-0.9c0,0-0.9-1.7-2-2.8l-4.4-4.2c-0.6-0.6-1.2-1-1.9-1.4l-0.6-0.3
	c0,0-0.4-0.6-0.4-0.6c-0.4-0.7-0.9-1.3-1.5-1.9l-4.4-4.2c-1.1-1.1-2.8-1.9-2.9-1.9l-0.9-0.4C150.2,156.9,154.4,152.6,154.4,152.6z
	 M144,273.7c4-8.1,1.3-14.1,1.3-14.1c7.9-4.6,13,0.1,13,0.1C155.1,271.4,144,273.7,144,273.7z M156.4,242.6c-1.9,2-5.6,4-9.8,3.3
	c-4.9-0.9-14.3-11.2-14.3-11.2c-5.8-5.6-15.6-8.1-23-6.3c4.2,1.6,7.3,4.5,7.3,4.5s-12.6,1.2-24.5,10.8c-3.6,0.1-7.2-0.3-10.7-1
	c-0.2,0-0.5-0.1-0.7-0.1c-1.6-0.3-3.4-0.6-5.3-1c2.4-6.1,6.6-12.6,13.3-18.8c-2.1-1.8-7.1-2.5-7.1-2.5s18.3-13.9,39.5-15
	c-0.7-3-4.6-7.6-4.6-7.6s38.1-1,58.2,13.4c1.2-3.7-0.6-11-0.6-11s27.9,17.3,34,36.8c1.1,3.4,1.2,7.9-2.7,9.6
	c-0.6,0.2-1.2,0.3-1.7,0.3c-3.7,0.2-6.8-2.7-9.2-5.9c-1.7,2.8-4.5,4.6-8.1,5c-4.6,0.5-9.3-1.3-12.1-4.6c-1.2,1.7-3.5,3.9-7.9,4.6
	C162.4,246.6,158.1,243.9,156.4,242.6z M199.1,262.5c4.3-5.1,9.3-3.4,9.3-3.4c0.7,8.8-6.7,13.4-6.7,13.4
	C202.5,265.9,199.1,262.5,199.1,262.5z M165.1,262.3c6.1-3.8,12-0.8,12-0.8c-2.4,10.7-13.4,14.3-13.4,14.3
	C167.2,269.1,165.1,262.3,165.1,262.3z M171.8,284h-8.9c4.5-1.6,8.8-4.3,12.5-7.1C175.3,276.9,174.9,280.2,171.8,284z M192,284
	h-16.2c3.9-0.6,10.2-2.4,17.4-7.8C193.9,278.8,192.2,283.3,192,284z M181.6,277.1c4.4-6.3,0.9-14.4,0.9-14.4
	c5.2-4,11.2-2.5,11.2-2.5C193.2,273.8,181.6,277.1,181.6,277.1z M207.1,284h-13.4c10.2-1.2,19.8-14.2,20.8-27.8c0,0,4.4-2.7,6.4-8.1
	c6-16.1-9.3-30.1-19.7-39.9c-1.3-1.2-2.6-2.4-4-3.6c1.5-16.4,16.3-30,18.7-32.1c2.3,0.2,13.6,1.5,19.1,7.9
	c-10,8.5-15.5,24.2-15.5,24.2s22.4-15.5,37-21.1c10.8-4.1,32.3-8.8,51.9,3.8c19.6-12.6,41.2-7.9,51.9-3.8c16.6,6.4,37,21.1,37,21.1
	s-6.4-16.9-15.5-24.2c5.5-6.4,16.8-7.7,19.1-7.9c2.2,2,15.2,13.9,18.2,28.8c-10.1,6.7-19.8,15.7-18.1,28.4c0.7,5.7,4.4,9.3,4.4,9.3
	c-0.1,0.5-0.2,0.9-0.2,1.4c-5.4-4.5-15.6-9.2-28.1-4.4c-0.3,0.1-0.5,0.2-0.8,0.3c0.4-1.8,0.7-3.8,0.7-5.7c0.1-4.8-1.1-9.5-3.5-13.6
	c6.4-3.3,13.7-4.6,13.7-4.6s-5.9-9.1-17.2-6.5c-4,0.9-6.3,3.8-10.6,7.8c-4.3,4-22.7,19.6-30.3,19.8c-9.2,0.3-13.3-1.1-13.3-1.1
	s9.8,13.5,16.7,31.9c0,0,3.8-2.6,2.4-13.1c4.4,3.3,9.8,5.2,15.4,5.3c3.7,0.1,7.4-0.7,10.8-2.1c-0.4,1.8-0.5,3.7-0.5,5.5
	c0,5.5,1.6,9.9,3.3,13c2.9,5.3,8.3,11.3,18.8,14.7h-19.6c0.4-1.7,0.9-3.4,0.9-3.4l-42.2,0c6.2-2.8,12.9-2.3,12.9-2.3
	c2.9-4.5,0.8-10.9,0.8-10.9s-7.3-10.2-27-10.2c-19.7,0-27,10.2-27,10.2s-2.1,6.4,0.8,10.9c0,0,12.4-0.9,19,6.9
	c-0.1,0.5-0.2,1-0.4,1.5c-3.5-0.7-7-0.9-10.5-0.5c-8.7,0.9-17,4.1-23.9,9.3c-0.9-1.2-1.7-2.4-2.7-3.5c-2.5-2.8-5.8-4.9-9.5-6.3
	c3.7-8.6,12.9-29.8,12.9-29.8h-15.6c-0.2,0-0.3-0.1-0.5-0.1c-11.2-3.1-15.9-9.7-17.7-13.3c-2.5,0.8-4.9,2.1-6.9,3.8
	c1.7,3,5.6,7.9,12.9,9.6h-21.3C217.8,259.4,212.1,272.5,207.1,284L207.1,284z M352.5,243.8c-1,0.3-2,0.4-3,0.4
	c-4.5-0.1-8.6-2.8-10.3-7c1.1-0.4,2.3-0.9,3.4-1.4c0.9,2.9,3.7,5,6.7,5c4,0.1,7.3-3.1,7.3-7.1c0,0,0,0,0,0c0-1.6-0.5-3.2-1.5-4.5
	c1.4-0.8,2.8-1.7,4.2-2.6c1.2,1.9,1.8,4.1,1.8,6.3c0,2-0.6,3.9-1.6,5.6c1,0.6,1.7,1.4,2.1,2.5c1.8-2.5,2.8-5.4,2.9-8.5
	c0-2.8-0.7-5.5-2.1-7.9c1.5-1,2.9-2,4.3-3c2.1,3.3,3.1,7.1,3.1,11c-0.2,11.1-9.3,20-20.5,19.8c-8.4-0.1-15.4-5.4-18.3-12.7
	c1.7-0.4,3.4-0.9,5.1-1.4c2.3,5.3,7.5,8.7,13.3,8.8c1.7,0,3.3-0.2,4.9-0.7C353.3,245.7,352.7,244.8,352.5,243.8L352.5,243.8z
	 M308.3,269.6c-7,0-13.6,1.5-18.8,4.1c2.5-4.7,10.3-8.4,18.8-8.4c8.6,0,16.3,3.7,18.8,8.4C321.8,271.1,315.3,269.6,308.3,269.6z
	 M288,453.3c-1.2,1.2-2.5,2.2-3.9,3.1c-4.7,3.2-10.3,4.9-16,4.9c-0.3,0-0.6,0-0.8,0c-15.9-0.4-28.3-13.7-27.9-29.5
	c0.4-12.6,8.8-23.1,20.2-26.6c3-0.9,6.2-1.4,9.3-1.3c3.1,0.1,6.2,0.7,9.2,1.8c11.2,4.2,19.1,15.1,18.7,27.7
	C296.6,440.9,293.5,448.1,288,453.3z M565.9,439.4l-0.6-5.5c-35.4,29.7-71.1,31.7-71.1,31.7s2.1-3.5,3.3-7.5c0,0-32.7,8.2-77.3-1
	c0,0,4.9-1.2,9.6-4.3c-10.8-2.9-87.7-23.5-128.9-48.7c-7.8-4.8-14.8-7.7-20.9-9.2c-3.4-1.1-7-1.6-10.5-1.7
	c-21.7-0.6-39.9,16.5-40.5,38.3c-0.4,15.3,7.9,28.8,20.4,35.7c-0.1,0-0.1,0-0.2,0c-41.8-3.7-41.4-45-34.5-59.6
	c-3.1,0.9-6.8,1.9-9.8,2.8c24.9-39,64.1-42.5,101-27.6l-1-9.1c30.9,7.9,97.6,26.1,153.6,56.5l-2.9-8.1c0,0,45.9,25,94,1.6
	c28.9-14,43.9-38.1,49.6-52.6c2.3-5.8,3.1-10.2,2.7-11.7c-0.3-1.4-1.2-1.9-2.7-1.6c0.6-1.9,3.6-5.3,7-3.8
	C615,357.9,608.9,404.3,565.9,439.4L565.9,439.4z"/>
<path class="st4" d="M480.9,261.4c2.6,0.2,4.6,0.1,6.2-0.2c3.9,4.3,6.3,9.9,6.9,15.9c0.7,7.3-2.6,14.3-9,17.3
	c-6.1,3-19.1-1.4-18.5-12.6c0.1-2.2,0.8-3.9,1.7-5.3c7.2,3,10.4,3.3,10.4,3.3C471.9,269,480.9,261.4,480.9,261.4L480.9,261.4z"/>
<path class="st2" d="M263.6,242.5c0,0.4,0,0.8-0.1,1.2c1,0.3,2,0.4,3,0.4c4.5-0.1,8.6-2.8,10.3-7c-1.1-0.4-2.3-0.9-3.4-1.4
	c-0.9,2.9-3.7,5-6.7,5c-4,0.1-7.3-3.1-7.3-7.1c0-1.6,0.5-3.2,1.5-4.5c-1.4-0.8-2.8-1.7-4.2-2.6c-1.2,1.9-1.8,4.1-1.8,6.3
	c0,2,0.6,3.9,1.6,5.6c2.3-1.3,5.2-0.5,6.5,1.7C263.4,241,263.6,241.7,263.6,242.5z M357.1,237.9c0.8,0,1.6,0.3,2.3,0.6
	c2.2-3.7,2.1-8.3-0.2-11.9c-1.4,0.9-2.8,1.7-4.2,2.6c0.9,1.2,1.5,2.8,1.5,4.5c-0.1,4-3.3,7.1-7.3,7.1c0,0,0,0,0,0
	c-3.1,0-5.8-2.1-6.7-5c-1.1,0.5-2.3,1-3.4,1.4c1.8,4.2,5.8,6.9,10.3,7c1,0,2-0.1,3-0.4c-0.1-0.4-0.2-0.8-0.1-1.2
	C352.4,239.9,354.5,237.9,357.1,237.9L357.1,237.9z M270.7,455.1c-3.4-1.3-5.7-3.1-7.2-6c-2.7-5.5,0.8-12.5,7.7-20.2
	c4.3-4.7,8.7-9.6,9-15.5c0.2-3.4-0.7-5.9-2.1-7.8c-2.9-1.1-6-1.7-9.2-1.8c-3.2-0.1-6.3,0.3-9.3,1.3c0.7-0.1,1.3-0.2,2-0.3
	c4.5-0.3,12.4,0.9,12,8.2c-0.2,3.5-3.7,7.4-7.3,11.4c-5.2,5.7-10.9,14-10.2,22.2c0.1,1.7,0.6,3.3,1.3,5c2.1,4.6,5.7,7.9,10.8,9.5
	c5.7,0,11.3-1.7,16-4.9c1.4-0.9,2.7-2,3.9-3.1l0,0C285.7,455.4,278,458,270.7,455.1z"/>
<path class="st4" d="M393,254.9c1.1-1.8,4.9-0.9,4.9-0.9s-7.9-8.1-16.5-4.7c-7.8,3-8.4,11.1-4.9,16.9c7,12,29.9,11.8,49.7,6.9
	c-11.9,10.4-20.4,20.8-25.4,31.6c-8.6,18.8-12.9,35.5-12.9,50c0,9.8,2,18.6,6,26.3c5.6,10.9,15.7,17.7,30.8,20.7
	c33.5,6.7,58.2-20.2,65.1-28.9c-24.3,9.8-47,11.3-60.1,4.6c-7.5-3.8-12.3-10.3-14.4-19.1c-5.8-24.1,14.1-60.5,29.1-74.7
	c2.1-1.9,5.4-4.4,9.1-6.6c-5.6-1.5-10.8-4.5-14.8-9c0,0-0.3,3.4,2,8c0,0-9.5-1.1-19.2-12.6c-1.4,2.6-0.6,7.9-0.6,7.9
	c-4.3-0.9-8.1-3.9-11-8.2C399.7,262.3,389.9,259.8,393,254.9z"/>
<path class="st1" d="M457.1,271c-0.2,1.4-0.1,2.8,0.2,3.9c1.3-0.6,2.6-1.2,4-1.7C459.8,272.5,458.4,271.8,457.1,271z"/>
<path class="st4" d="M457.1,271c-0.2,1.4-0.1,2.8,0.2,3.9c1.3-0.6,2.6-1.2,4-1.7C459.8,272.5,458.4,271.8,457.1,271z M448.5,315.2
	c-10.5,11.3-15.7,28.5-12,40.1c3.6,11.3,9.2,13.4,15.7,14.8c6.7,1.5,12.1-0.3,20-4.4c2.7,2.8,8.2,5,14.3,4
	c5.8-0.9,11.7-4.5,18.6-11.1c2.2,6,8.2,9.6,13.6,10.9c6,1.5,13.7-1.2,20.8-7.3c5,4.7,13.4,9.3,22.8,8.9c8.1-0.4,15.4-4.3,21.5-11.8
	c5.1-6.2,6.9-13.6,6.9-20.9c0-14.2-6.6-27.7-8.4-31.1c0.8-1.3,5-9.1,5-9.1h-16.4c-11,19.7-33.4,45.9-37.6,50.8
	c-5.1,5.8-6.5,5.8-7.6,5.7c-1.1-0.2-3.1-1.9-1.4-6.5c4.2-11.3,13.3-33.2,18.6-45.7c7.8-0.2,15.4-3.2,15.4-3.2s3.8-8.6,5.3-12.9
	c0,0-9.1,1.9-14.8,2.1c1.2-2.9,7.3-17.2,7.3-17.2l-18.2,0l-6.9,16.1c-5.4-0.4-11.9-0.2-16.8,0.3c0,0-3,6.7-5.8,11.7
	c0,0,8.2-1.3,17.2,0.5c-6.3,14.8-14.5,34.1-19.1,45.7c-6.4,5.2-12.6,8.7-17.1,8c0.6-1.6,6.5-17.6,6.5-17.6
	c4-10.2,12.6-30.3,13.6-32.5h-16.5l-2.7,5c-2.9-3.8-8.9-7.2-15-7.1C463.3,301.8,456.1,307,448.5,315.2L448.5,315.2z M571.7,324.8
	c2.1,4.3,4.3,9.9,4.3,15.4c0,4.4-1.4,8.7-5.2,12c-6.2,5.4-14.9,2.7-19.5-1.2C557.9,344,564.8,335.2,571.7,324.8z M480.5,315.9
	c1.2,1.3,1.8,3.1,1.8,5.2c0,2-0.5,4.2-1.6,6.6l-3.3,7.5c-0.1,0.1-4.8,11.7-7,17.9c-5.8,2.2-8.5,2.2-12.7-0.1
	c-4.6-2.5-5.5-8.6-2.5-18c3.1-9.8,12.2-19.1,18.4-20.9C476.2,313.3,478.8,314,480.5,315.9z M184.2,307.5c0.5-0.9,3.5-6.9,4.6-9.1
	h-16c-11.4,20.3-28.6,40.8-37.6,50.8c-2.1,2.6-4.8,5.1-5.8,4.8c-1.3-0.4,0.1-3.6,0.9-5.6c5.3-14,10.9-27.9,16.9-41.7h-18.3
	c-3.4,7.7-10.9,25-17.5,41.5c-5.3,13.2,4.8,20.7,9.3,21.6c6.2,1.2,13.8-1.5,20.8-7.3c5.1,4.7,13.4,9.4,22.9,8.9
	c9.4-0.5,27.8-8.5,28.4-32.7C192.9,324.5,186,310.9,184.2,307.5L184.2,307.5z M172.7,352.2c-6.2,5.4-14.9,2.7-19.5-1.2
	c6.7-7,13.5-15.8,20.4-26.2c2.1,4.3,4.3,9.9,4.3,15.4C177.9,344.5,176.5,348.8,172.7,352.2z"/>
<path class="st4" d="M143.7,303.7c3.2-0.1,6.1-1.3,7.7-3.3c1.2-1.4,1.7-3.1,1.5-4.8c-0.6-4.2-5.4-7.4-11-7.2
	c-3.2,0.1-6.1,1.3-7.7,3.3c-1.2,1.4-1.7,3.1-1.5,4.8C133.2,300.8,138.1,303.9,143.7,303.7z M122.8,293.9c-2.2,0.5-7.9,1.7-12.2,2.1
	c10.9-24.8,23.5-35.4,23.5-35.4l-13.7-9.7c0,0-15.1,8.9-33.9,7.2c-1.7-0.2-4.4-0.7-7.5-1.3c-14.1-2.8-40.5-8-47.4,8
	c-1.7,4-1.2,8,1.7,11.4c4.6,5.6,15.2,9.1,21.7,6.9c-1-1.1-4.5-7.2-0.9-11c3.6-3.7,20.9-6.8,45.3,2.7c-3.4,6.6-6.7,13.4-9.8,20.1
	c-7.3-0.4-14.7-0.2-20.1,0.4c-0.1,0.2-4.7,6.2-7.1,12.3c2.9-0.6,10.6-1.1,21.1,0.7c-12.5,28.8-20.8,55.6-24.3,76.8h29.4
	c2.7-27.1,8.1-52.7,15.6-73.7c7.9-0.6,14-3.5,14-3.5S121.6,298.9,122.8,293.9L122.8,293.9z M239.5,322c-2.4,5.7-6.3,14.8-10.8,26.1
	c-2.1,5.3-1.9,10.6,0.6,15c2,3.5,5.3,6,8.8,6.6c7.3,1.3,16.3-2.8,23.9-10.5c3.7,5.7,8.6,9.1,15,10.1c7.3,1.2,32.6,3,49.5-21.5
	c6.8-9.9,11-22.8,14-31.9h4c-1.7,5-6.4,19.8-6.4,32.6c0,5.2,0.8,10,2.8,13.7c2,3.7,5.1,6.3,9.2,7.1c6.9,1.2,14.6-2.6,20.4-6.6
	c-0.3-2.7-0.4-5.4-0.4-8.2c0-1.5,0.1-3.1,0.1-4.7c-1.9,1.1-3.8,1.8-5.2,1.8c-4-0.1-6.7-1.8-8.5-4.7c-1.5-2.6-2.2-6-2.2-9.8
	c0-14.1,9.3-35.2,9.4-35.5h-19.1c0.2-0.9,0.9-3.4,0.9-3.4l-17.1,0c-0.1,0.4-7,43.2-26.8,53.6c-6.6,3.5-17.4,4.7-23.2,0.6
	c-2.4-1.6-2.8-6.2-2.8-8.5c15.5,3.3,33.2-0.3,38.9-16.1c2.6-7.2,0.2-12.6-2.3-15.7c-4.5-5.7-12.9-9.2-20.4-8.4
	c-24.5,2.5-33.9,28-33.9,42.4c0,0.6,0,1.1,0.1,1.6c-5.1,4.7-9.9,7.6-11.1,7.3c-1.4-0.4,0.1-4.8,0.9-6.8c2.9-7.8,6-15.5,9.1-23.3
	c3.1-7.7,2-13.9-3.6-20c-4.2-4.6-12.7-4.7-19.7-2.5c3.8-9.7,7.8-19.4,12-29h-18.3c-6.4,14.5-23.7,54.3-36.8,96.3h19.5
	c4.7-15.2,9.8-30.3,15.3-45.2c1.1-3.3,5.4-5,7.5-5.8C237.7,316.8,240.3,320,239.5,322L239.5,322z M292.2,318.3
	c2.3-0.5,4.5-0.2,6,0.8c1,0.7,1.6,1.6,1.9,2.8c0.4,2.4-0.3,4.5-2.2,6.4c-4.3,4.2-13.5,6-19.9,5.2
	C279.9,326.9,284.7,319.9,292.2,318.3L292.2,318.3z"/>
<g>
	<path class="st3" d="M377.7,326.6c2.4-8.9,11-30,15-36.8c-2.5-0.3-5.1-0.8-7.5-1.4c-2.6,4.8-14,31-16.5,45.1
		C371.7,331.2,374.7,328.9,377.7,326.6L377.7,326.6z M400.8,229.8c-1.7-12.8,8-21.7,18.1-28.4c-3-14.9-16-26.9-18.2-28.8
		c-2.3,0.2-13.6,1.5-19.1,7.9c9.1,7.3,15.5,24.2,15.5,24.2s-20.4-14.6-37-21.1c-10.7-4.2-32.3-8.8-51.9,3.8
		c-19.6-12.6-41.2-7.9-51.9-3.8c-14.5,5.5-37,21.1-37,21.1s5.5-15.7,15.5-24.2c-5.6-6.4-16.8-7.7-19.1-7.9
		c-2.4,2.1-17.1,15.7-18.7,32.1c1.4,1.2,2.7,2.4,4,3.6c10.4,9.9,25.7,23.8,19.7,39.9c-2,5.4-6.4,8.1-6.4,8.1
		c-1,13.5-10.6,26.5-20.8,27.8h13.4c3.5-8.2,7.1-16.4,10.7-24.6h21.3c-7.2-1.7-11.1-6.6-12.9-9.6c2-1.7,4.4-3,6.9-3.8
		c1.8,3.6,6.5,10.2,17.7,13.3c0.2,0.1,0.4,0.1,0.5,0.1H267c0,0-9.2,21.2-12.9,29.8c3.7,1.4,7,3.5,9.5,6.3c1,1.1,1.9,2.3,2.7,3.5
		c7-5.3,15.2-8.5,23.9-9.3c3.5-0.3,7.1-0.2,10.5,0.5c0.1-0.5,0.3-1,0.4-1.5c-6.6-7.8-19-6.9-19-6.9c-2.9-4.5-0.8-10.9-0.8-10.9
		s7.3-10.2,27-10.2c19.7,0,27,10.2,27,10.2s2.1,6.4-0.8,10.9c0,0-6.7-0.5-12.9,2.3l42.2,0c0,0-0.4,1.7-0.9,3.4h19.6
		c-10.4-3.4-15.9-9.4-18.8-14.7c-2.1-4-3.3-8.5-3.3-13c0-1.7,0.2-3.6,0.5-5.5c-3.4,1.5-7.1,2.2-10.8,2.1c-5.6-0.1-10.9-1.9-15.4-5.3
		c1.3,10.5-2.4,13.1-2.4,13.1c-6.9-18.4-16.7-31.9-16.7-31.9s4.1,1.4,13.3,1.1c7.6-0.3,26-15.8,30.3-19.8c4.3-4,6.6-6.9,10.6-7.8
		c11.3-2.6,17.2,6.5,17.2,6.5s-7.3,1.4-13.7,4.6c2.4,4.1,3.6,8.8,3.5,13.6c0,1.9-0.3,3.9-0.7,5.7c0.3-0.1,0.5-0.2,0.8-0.3
		c12.5-4.8,22.7-0.2,28.1,4.4c0.1-0.5,0.1-0.9,0.2-1.4C405.2,239.1,401.6,235.5,400.8,229.8L400.8,229.8z M271.6,203.8
		c-0.5-4.4-1.4-8.6-2.9-12.8c10.1,8.9,17.1,21.3,18.9,35.7c-7.8-11.8-18.9-18.7-32-22.3C260.9,203.5,266.3,203.3,271.6,203.8z
		 M283.6,264.4c0,0-3.8-2.6-2.4-13.1c-4.4,3.3-9.8,5.2-15.4,5.3c-14.5,0.2-26.5-11.3-26.7-25.8c-0.1-4.8,1.1-9.5,3.5-13.6
		c-6.4-3.3-13.7-4.6-13.7-4.6s5.9-9.1,17.2-6.5c4,0.9,6.3,3.8,10.6,7.8c4.3,4,22.7,19.6,30.3,19.8c9.2,0.3,13.3-1.1,13.3-1.1
		S290.5,245.9,283.6,264.4L283.6,264.4z M328.3,226.7c1.8-14.4,8.8-26.8,18.9-35.7c-1.4,4.1-2.4,8.4-2.9,12.8
		c5.3-0.6,10.7-0.4,16,0.6C347.2,208,336.1,214.9,328.3,226.7L328.3,226.7z M162.9,284h8.9c3.1-3.8,3.6-7.1,3.6-7.1
		C171.7,279.8,167.3,282.4,162.9,284z M193.1,276.2c-7.2,5.4-13.5,7.3-17.4,7.8H192C192.2,283.3,193.9,278.8,193.1,276.2z"/>
	<path class="st3" d="M109.3,228.5c7.4-1.8,17.2,0.7,23,6.3c0,0,9.4,10.3,14.3,11.2c4.2,0.7,7.9-1.4,9.8-3.3c1.7,1.3,6,4,9.9,3.4
		c4.4-0.6,6.7-2.9,7.9-4.6c2.9,3.3,7.5,5.1,12.1,4.6c3.6-0.4,6.4-2.3,8.1-5c2.3,3.1,5.5,6.1,9.2,5.9c-7.5-20.6-21.2-31.2-21.2-31.2
		s-0.5,4.3-1.5,7.4c-23.3-15.6-55-19.4-55-19.4s3.9,4.7,4.5,7.1c-25.1,1.2-35.4,8.9-35.4,8.9s3.8,1.1,5.5,2.5
		c-9.6,5.9-15.9,13.2-20,20.6c0.3,0.1,0.5,0.1,0.7,0.1c3.5,0.7,7.1,1,10.7,1c11.9-9.6,24.5-10.8,24.5-10.8S113.4,230,109.3,228.5z
		 M606.1,353.9c-3.5-1.5-6.4,1.8-7,3.8c1.5-0.3,2.4,0.2,2.7,1.6c0.4,1.5-0.4,5.9-2.7,11.7c-7.8,22.1-40,91.1-129.8,66.1l2.4,7.7
		c0,0-75.2-37-156-59.7l1.7,9.5c0,0-65.6-28.4-96.6,8.2l6.4-1.3c0,0-27.7,45.1,21.9,65.7c0.1,0,0.1,0,0.2,0
		c-12.5-6.9-20.9-20.4-20.4-35.7c0.6-21.7,18.8-38.9,40.5-38.3c3.7,0.1,7.2,0.7,10.5,1.7c6.2,1.5,13.1,4.4,20.9,9.2
		c41.2,25.1,118.1,45.8,128.9,48.7c-4.7,3.2-9.6,4.3-9.6,4.3c44.6,9.2,77.3,1,77.3,1c-1.1,4-3.3,7.5-3.3,7.5s35.7-2,71.1-31.7
		l0.6,5.5C608.9,404.3,615,357.9,606.1,353.9L606.1,353.9z"/>
	<path class="st3" d="M257.4,451.7c-0.7-1.6-1.1-3.2-1.3-5c-4.5-5.4-6.9-12.2-6.7-19.3c0.3-9.4,5.1-17.6,12.2-22.6
		c-0.8,0.1-1.5,0.2-2,0.3c-11.4,3.5-19.8,14-20.2,26.6c-0.5,15.9,12,29.1,27.9,29.5c0.3,0,0.5,0,0.8,0
		C263.1,459.6,259.5,456.4,257.4,451.7L257.4,451.7z M529.8,229.9c0,0-8.3-9.7-32.5-16.5c1.1-2.2,6-5.9,6-5.9s-31.8-3.3-57.9,6.7
		c-0.3-3.2,0.2-7.5,0.2-7.5s-15.6,7.5-27.4,25.7c3.5,0.9,7.2-1.2,10.1-3.7c1,3.1,3.3,5.5,6.8,6.7c4.4,1.5,9.3,0.8,12.9-1.8
		c0.8,1.9,2.5,4.6,6.7,6.2c3.7,1.4,8.5-0.3,10.4-1.1c1.4,2.3,4.5,5.2,8.8,5.4c5,0.2,16.4-7.7,16.4-7.7c6.9-4.1,17-4.4,23.8-1
		c-4.4,0.6-8.2,2.8-8.2,2.8s14,4.7,23.7,19h9.6c-2.3-8.6-6.8-17.7-15.4-26.1C525.8,230.1,529.8,229.9,529.8,229.9L529.8,229.9z"/>
</g>
<g>
	<path class="st4" d="M177.2,261.5c0,0-5.9-3-12,0.8c0,0,2.1,6.8-1.3,13.5C163.8,275.8,174.8,272.2,177.2,261.5z M193.6,260.2
		c0,0-6-1.5-11.2,2.5c0,0,3.6,8.1-0.9,14.4C181.6,277.1,193.2,273.8,193.6,260.2z M201.8,272.5c0,0,7.4-4.7,6.7-13.4
		c0,0-5.1-1.7-9.3,3.4C199.1,262.5,202.5,265.9,201.8,272.5z M100.6,222.1c-1.7-1.5-5.5-2.5-5.5-2.5s10.3-7.6,35.4-8.9
		c-0.6-2.4-4.5-7.1-4.5-7.1s31.7,3.8,55,19.4c1-3,1.5-7.4,1.5-7.4s13.7,10.6,21.2,31.2c0.6,0,1.2-0.1,1.7-0.3
		c3.9-1.7,3.8-6.2,2.7-9.6c-6.2-19.4-34-36.8-34-36.8s1.8,7.3,0.6,11c-20.1-14.4-58.2-13.4-58.2-13.4s3.8,4.6,4.6,7.6
		c-21.2,1.1-39.5,15-39.5,15s5,0.6,7.1,2.5c-6.8,6.3-10.9,12.8-13.3,18.8c1.9,0.3,3.7,0.7,5.3,1C84.7,235.3,91,228,100.6,222.1z
		 M145.3,259.6c0,0,2.7,6-1.3,14.1c0,0,11.1-2.4,14.3-14C158.3,259.7,153.2,255,145.3,259.6z M153.9,159.2l4.4,4.2
		c0.6,0.6,1,1.1,1.5,1.9c0,0,0.4,0.6,0.4,0.6l0.6,0.3c0.6,0.3,1.2,0.7,1.9,1.4l4.4,4.2c1.1,1.1,2,2.8,2,2.8l0.4,0.9l4.8-4.9
		l-0.9-0.4c0,0-1.8-0.8-2.9-1.9c0,0-3.9-3.7-6.5-6.3c4.1,1.6,13.6,5.2,13.6,5.2l3.5-3.6l-0.9-0.4c0,0-1.8-0.8-2.9-1.9l-4.4-4.2
		c-0.6-0.6-1.1-1.2-1.5-1.9l-0.4-0.6l-0.6-0.3c-0.7-0.4-1.4-0.8-2-1.4l-4.4-4.2c-1.1-1.1-2-2.8-2-2.8l-0.4-0.9l-0.7,0.7l-3.4,3.6
		l-0.7,0.7l0.9,0.4c0,0,1.7,0.8,2.9,1.9l5,4.8l-11.3-4.4l-4.2,4.3l0.9,0.4C151.1,157.3,152.8,158.1,153.9,159.2z M175.1,139l3.7,4.9
		c0.5,0.7,0.9,1.3,1.2,2.1l0.3,0.7l0.6,0.4c0.5,0.3,1,0.8,1.7,1.7l3.7,4.9c0.9,1.2,1.5,3.1,1.5,3.1l0.3,0.9l8-6
		c1.2-0.9,3.1-1.5,3.1-1.5l0.9-0.3l-4.1-5.5l-0.5,0.8c0,0-1.1,1.6-2.3,2.5c0,0-2.5,1.8-3.3,2.5c-1.3-1.7-2.6-3.4-3.8-5.1l0.9-0.7
		c1.2-0.9,3.1-1.5,3.1-1.5l0.9-0.3l-4.1-5.5l-0.5,0.8c0,0-1.1,1.6-2.3,2.5c0,0-0.5,0.4-0.9,0.7c-0.6-0.8-2.7-3.6-3.3-4.4
		c0.8-0.6,3.3-2.5,3.3-2.5c1.2-0.9,3.1-1.5,3.1-1.5l0.9-0.3l-4.1-5.5l-0.5,0.8c0,0-1.1,1.6-2.3,2.5l-8,6l0.8,0.5
		C172.6,136.7,174.2,137.8,175.1,139L175.1,139z M197.8,122.7l3.8,4.8c0.5,0.7,0.9,1.3,1.2,2.1c0,0,0.3,0.7,0.3,0.7l0.6,0.4
		c0.5,0.4,1.1,0.9,1.8,1.7l3.8,4.9c1,1.2,1.6,3,1.6,3l0.3,0.8l5.7-3.2l-0.5-0.6c-0.4-0.5-0.7-1-1-1.5c-0.3-0.5-0.5-0.9-0.7-1.4
		c0,0-2.1-5.5-3.7-9.7l6.2,8.3c0.3,0.4,0.6,0.9,0.9,1.4c0.5,0.9,0.8,1.6,0.8,1.6l0.3,0.7l5.7-3.2l-0.5-0.6c0,0-1.2-1.5-1.7-2.9
		l-2.1-5.8c-0.3-0.8-0.5-1.6-0.5-2.4l-0.1-0.7l-0.4-0.6c-0.5-0.6-0.9-1.3-1.1-2.1l-2.1-5.8c-0.5-1.5-0.6-3.5-0.6-3.5l0-1.1l-1,0.5
		l-4.3,2.4l-0.7,0.4l0.5,0.6c0,0,0.6,0.8,1.2,1.8c0.2,0.4,0.4,0.8,0.5,1.1c0,0,1.6,4.5,2.9,8l-5.1-6.8c-0.2-0.3-0.4-0.6-0.6-0.9
		c-0.6-1.1-0.9-2.1-0.9-2.1l-0.3-0.8l-6,3.3l0.5,0.6c0,0,0.7,0.9,1.3,1.9c0.2,0.3,0.3,0.6,0.5,1c0,0,1.7,4.3,3,7.9
		c-2.4-3.1-5.3-6.7-5.3-6.7c-0.3-0.3-0.5-0.7-0.7-1.1c-0.3-0.6-0.6-1.3-0.9-1.9l-0.3-0.8l-6,3.3l0.9,0.6
		C195.1,120.3,196.8,121.5,197.8,122.7z M246.7,100.4l1.6,5.9c0.2,0.9,0.3,1.5,0.3,2.4l0,0.7l0.4,0.6c0.3,0.5,0.7,1.2,0.9,2.2
		l1.6,5.9c0.4,1.5,0.3,3.4,0.3,3.4l-0.1,1l6.6-1.8l-0.5-0.8c0,0-1.1-1.6-1.5-3.1c0,0-1.5-5.7-1.8-6.8l4.7-1.2l1.8,6.8
		c0.4,1.5,0.3,3.4,0.3,3.4l-0.1,1l6.6-1.8l-0.5-0.8c0,0-1.1-1.6-1.5-3.1l-1.6-5.9c-0.2-0.8-0.3-1.6-0.3-2.4l0-0.7l-0.4-0.6
		c-0.4-0.7-0.7-1.4-0.9-2.2l-1.6-5.9c-0.4-1.5-0.3-3.4-0.3-3.4l0.1-1l-0.9,0.2l-4.8,1.3l-0.9,0.2l0.5,0.8c0,0,1.1,1.6,1.5,3.1
		c0,0,1.3,4.9,1.6,6c-0.9,0.2-3.7,1-4.7,1.2c-0.3-1.1-1.6-6-1.6-6c-0.4-1.5-0.3-3.4-0.3-3.4l0.1-1l-6.6,1.8l0.5,0.8
		C245.2,97.3,246.3,98.9,246.7,100.4L246.7,100.4z M282.8,114.7c0,0-0.5-1.8-0.4-3.3l0.1-1.6l4.5-0.6l0.5,1.5c0.1,0.5,0.2,1,0.3,1.5
		c0.1,1,0.1,1.9,0.1,1.9l0,0.8l6.6-0.8l-0.6-0.9c0,0-1.2-1.7-1.7-3.2l-1.8-5.9c-0.3-0.8-0.4-1.5-0.4-2.3l0-0.7l-0.4-0.6
		c-0.5-0.7-0.8-1.5-1.1-2.3l-1.8-5.9c-0.5-1.5-0.4-3.3-0.4-3.3l0-0.8l-0.8,0.1l-6.3,0.8l-0.8,0.1l0.2,0.8c0,0,0.5,1.8,0.4,3.3
		l-0.4,6.2c0,0.8-0.2,1.7-0.5,2.5l-0.2,0.7l0.2,0.7c0.2,0.8,0.3,1.5,0.2,2.4l-0.4,6.1c-0.1,1.6-0.8,3.5-0.8,3.5l-0.4,1.1l6.4-0.8
		C283,115.4,282.8,114.7,282.8,114.7z M283.2,97.4l2.2,6.9l-2.7,0.3L283.2,97.4z M310.1,112.8c0,0-0.6-1.9-0.5-3.4l0.2-6.9l2.7,11.3
		l3.5-11.1l-0.3,6.9c-0.1,1.5-0.7,3.3-0.7,3.3l-0.3,0.9l6.9,0.2l-0.3-0.9c0,0-0.6-1.9-0.5-3.4l0.2-6.1c0-0.8,0.2-1.6,0.4-2.4
		l0.2-0.7l-0.2-0.7c-0.2-0.8-0.3-1.6-0.3-2.4l0.2-6.1c0.1-1.5,0.7-3.3,0.7-3.4l0.3-0.9l-1,0l-6.1-0.2l-0.9,0l0.2,0.9
		c0.2,1.1,0.2,2.2-0.1,3.3c0,0-0.8,3-1.5,5.4l-1.1-5.5c-0.1-0.5-0.1-1-0.1-1.6c0-0.6,0.1-1.2,0.2-1.7l0.2-0.8l-8-0.3l0.3,0.9
		c0,0,0.6,1.9,0.5,3.4l-0.2,6.1c0,0.9-0.1,1.5-0.4,2.4l-0.2,0.7l0.2,0.7c0.1,0.6,0.3,1.3,0.3,2.4l-0.2,6.1c-0.1,1.5-0.7,3.3-0.7,3.4
		l-0.3,0.9l6.9,0.2C310.4,113.8,310.1,112.8,310.1,112.8z M337.3,115.1c0,0-0.3-1.9-0.1-3.4l1.1-7l2.2,0.4c1.8,0.3,3.5,0.4,5-1
		c1.5-1.4,2.3-3.1,2.7-5.7c0.8-5.1-0.7-7.9-4.4-8.5l-8-1.3l-1-0.2l0.2,0.9c0,0,0.3,1.9,0.1,3.4l-0.9,6c-0.1,0.8-0.3,1.6-0.7,2.3
		l-0.3,0.7l0.1,0.7c0.1,0.6,0.1,1.3,0,2.4l-1,6c-0.2,1.5-1.1,3.2-1.1,3.2l-0.4,0.9l6.8,1.1C337.4,116.1,337.3,115.1,337.3,115.1z
		 M339.9,94.3l1.6,0.3c1.3,0.2,2.1,0.8,1.8,3.1c-0.3,1.8-1.1,2.6-2.5,2.4l-1.7-0.3L339.9,94.3L339.9,94.3z M358.7,120.8l2.8,0.9
		c1.7,0.5,3.4,0.9,5.1-0.3c1.6-1.1,2.8-3,3.6-5.7c1.5-5,0.5-8.1-3.1-9.2l-1.4-0.4c-1-0.3-2-1-1.3-3.4c0.5-1.8,1.5-2.5,2.9-2l2.3,0.7
		c1.5,0.4,3,1.6,3.1,1.6l0.8,0.6l2-6.6l-1,0c0,0-1.9,0.1-3.4-0.4l-2.8-0.9c-1.7-0.5-3.4-0.9-5.1,0.3c-1.7,1.2-2.7,2.7-3.5,5.2
		c-1.5,5-0.5,8.1,3.1,9.2l1.4,0.4c1,0.3,2,1,1.3,3.4c-0.4,1.5-1.5,3-3,2.5l-2.3-0.7c-1.5-0.5-3-1.6-3.1-1.6l-0.8-0.6l-2,6.6l1,0
		C355.3,120.4,357.2,120.3,358.7,120.8z M383.4,128.6c0,0,0.2-1.9,0.9-3.3c0,0,2.2-4.7,3-6.4c0.9,0.4,3.5,1.6,4.4,2
		c-0.5,1-3,6.4-3,6.4c-0.7,1.4-2,2.8-2,2.8l-0.7,0.7l6.2,2.9l0.1-1c0,0,0.2-1.9,0.9-3.3l2.6-5.5c0.5-1,0.9-1.6,1.3-2
		c0,0,0.5-0.5,0.5-0.5l0.1-0.7c0.1-0.9,0.3-1.5,0.7-2.3l2.6-5.5c0.6-1.4,2-2.8,2-2.8l0.7-0.7l-0.9-0.4l-4.5-2.1l-0.9-0.4l-0.1,1
		c0,0-0.2,1.9-0.9,3.3l-2.6,5.6c-0.9-0.4-3.5-1.6-4.4-2c0.5-1,2.6-5.6,2.6-5.6c0.7-1.4,2-2.8,2-2.8l0.7-0.7l-6.2-2.9l-0.1,1
		c0,0-0.2,1.9-0.9,3.3l-2.6,5.5c-0.3,0.7-0.8,1.4-1.3,2l-0.5,0.5l-0.1,0.7c-0.1,0.8-0.3,1.6-0.7,2.3l-2.6,5.5c-0.6,1.4-2,2.8-2,2.8
		l-0.7,0.7l6.2,2.9L383.4,128.6L383.4,128.6z M400.9,137.5l-0.7,0.6l5.9,3.5l0.2-0.9c0,0,0.4-1.9,1.2-3.2l3.1-5.2
		c0.5-0.9,1.1-1.4,1.5-1.9l0.5-0.5l0.2-0.7c0.2-0.8,0.5-1.5,0.9-2.2l3.1-5.2c0.8-1.3,2.3-2.6,2.3-2.6l0.7-0.6l-0.8-0.5l-4.2-2.5
		l-0.8-0.5l-0.2,0.9c0,0-0.4,1.9-1.2,3.2l-3.1,5.2c-0.4,0.7-0.9,1.3-1.5,1.9l-0.5,0.5l-0.2,0.7c-0.2,0.8-0.5,1.5-0.9,2.2l-3.1,5.2
		C402.4,136.2,400.9,137.5,400.9,137.5z M414.6,145.8l-0.8,0.5l5.5,4.1l0.3-0.9c0,0,0.6-1.8,1.5-3.1l4.2-5.6l1,0.7l-2.5,7.2
		c-0.5,1.3-1.3,2.5-1.6,2.8l-0.5,0.7l5.3,4l0.1-1.3c0,0,0.1-2.2,0.7-3.8l2.7-7.6c0.5,0,1,0.1,1.5,0c2-0.5,3.5-1.6,5.1-3.7
		c3.1-4.1,3.1-7.3,0.1-9.6l-6.5-4.9l-0.8-0.6l-0.3,0.9c0,0-0.6,1.8-1.5,3.1l-3.6,4.8c-0.5,0.7-1,1.2-1.7,1.7l-0.6,0.4l-0.3,0.7
		c-0.3,0.7-0.7,1.5-1.1,2.1l-3.7,4.9C416.2,144.7,414.6,145.8,414.6,145.8L414.6,145.8z M431.7,132.5l1.3,1c1.1,0.8,1.5,1.7,0.1,3.5
		c-1.1,1.5-2.2,1.8-3.4,0.9l-1.4-1C428.4,136.9,431.7,132.5,431.7,132.5z M434.6,162l-0.9,0.4l7.2,7c1.1,1.1,2,2.8,2,2.8l0.4,0.9
		l4.8-4.9l-0.9-0.4c0,0-1.8-0.8-2.9-1.9c0,0-2.2-2.1-2.9-2.8c0.7-0.7,3.7-3.8,4.4-4.6c0.4,0.4,0.8,0.8,0.8,0.8c1.1,1.1,2,2.8,2,2.8
		l0.4,0.9l4.8-5l-0.9-0.4c0,0-1.8-0.8-2.9-1.9c0,0-0.5-0.4-0.8-0.8c0.7-0.7,3.1-3.3,3.8-4l2.9,2.8c1.1,1.1,2,2.8,2,2.8l0.4,0.9
		l4.8-5l-0.9-0.4c0,0-1.8-0.8-2.9-1.9l-7.2-6.9l-0.4,0.9c0,0-0.8,1.8-1.9,2.9l-4.2,4.4c-0.6,0.6-1.1,1-1.9,1.5c0,0-0.6,0.4-0.6,0.4
		l-0.3,0.6c-0.3,0.6-0.7,1.2-1.4,1.9l-4.2,4.4C436.4,161.1,434.6,162,434.6,162L434.6,162z M266.7,247.1c-1.7,0-3.3-0.2-4.9-0.7
		c0.8-0.6,1.4-1.5,1.7-2.6c0.1-0.4,0.2-0.8,0.1-1.2c-0.1-2.6-2.2-4.7-4.8-4.6c-0.8,0-1.6,0.2-2.3,0.6c-1,0.6-1.7,1.4-2.1,2.5
		c-1.8-2.5-2.8-5.4-2.9-8.5c-0.1-2.8,0.7-5.5,2.1-7.9c-1.5-1-2.9-2-4.3-3c-2.1,3.3-3.1,7.1-3.1,11c0.2,11.1,9.3,20,20.4,19.8
		c8.4-0.1,15.4-5.4,18.3-12.7c-1.7-0.4-3.4-0.9-5.1-1.4C277.6,243.6,272.4,247,266.7,247.1z M362.3,224.6c1.4,2.4,2.2,5.1,2.1,7.9
		c0,3.1-1.1,6-2.9,8.5c-0.7-1.8-2.4-3.1-4.4-3.1c-2.6,0-4.8,2-4.8,4.6c0,0.4,0,0.8,0.1,1.2c0.3,1,0.9,1.9,1.7,2.6
		c-1.6,0.5-3.2,0.8-4.9,0.7c-5.8-0.1-11-3.5-13.3-8.8c-1.7,0.6-3.4,1.1-5.1,1.4c2.9,7.3,10,12.5,18.3,12.7
		c11.1,0.2,20.3-8.7,20.5-19.8c0.1-3.9-1-7.7-3.1-11C365.3,222.5,363.9,223.5,362.3,224.6z M227.1,401.3l-6.4,1.3
		c30.9-36.5,96.6-8.2,96.6-8.2l-1.7-9.5c80.8,22.8,156,59.7,156,59.7l-2.4-7.7c89.8,25.1,122-44,129.8-66.1
		c-5.7,14.6-20.7,38.6-49.6,52.6c-48.1,23.4-94-1.6-94-1.6l2.9,8.1c-56.1-30.4-122.7-48.7-153.6-56.5l1,9.1
		c-37-14.9-76.1-11.4-101,27.6c3-0.9,6.7-1.9,9.8-2.8c-6.9,14.6-7.4,55.9,34.5,59.6C199.4,446.4,227.1,401.3,227.1,401.3
		L227.1,401.3z"/>
	<path class="st4" d="M249.4,427.5c-0.2,7,2.2,13.9,6.7,19.3c-0.7-8.3,5-16.5,10.2-22.2c3.7-4,7.1-7.9,7.3-11.4
		c0.4-7.3-7.5-8.5-12-8.2C254.5,409.9,249.7,418.1,249.4,427.5L249.4,427.5z M278.1,405.6c1.4,1.9,2.3,4.5,2.1,7.8
		c-0.3,5.9-4.8,10.7-9,15.5c-6.9,7.6-10.4,14.7-7.7,20.2c1.5,3,3.8,4.7,7.2,6c7.4,2.8,15,0.3,17.4-1.9l0,0
		c5.4-5.2,8.6-12.4,8.8-19.9C297.2,420.8,289.4,409.8,278.1,405.6L278.1,405.6z M327.1,273.6c-2.5-4.7-10.3-8.4-18.8-8.4
		c-8.6,0-16.3,3.7-18.8,8.4c5.3-2.5,11.9-4.1,18.8-4.1C315.3,269.6,321.8,271.1,327.1,273.6z M440.4,252.4c0,11,9.9,16.9,9.9,16.9
		c-1.9-7.3,1.7-13.5,1.7-13.5C446.8,250.8,440.4,252.4,440.4,252.4L440.4,252.4z M424.6,247.5c-2.5,13.4,8.1,19.1,8.1,19.1
		c-2.9-7.2,2.3-14.2,2.3-14.2C430.8,247.4,424.6,247.5,424.6,247.5z M410.4,243.2c-2.6,8.4,3.6,14.6,3.6,14.6
		c0.7-6.6,4.8-9.2,4.8-9.2C415.7,242.6,410.4,243.2,410.4,243.2z M459.1,254.9c0.5,12,10.9,16.8,10.9,16.8
		c-2.2-8.8,1.8-14.1,1.8-14.1C465.2,251.3,459.1,254.9,459.1,254.9z M513.8,203.9c0,0-36.9-9.4-59.7,0.1c-0.4-3.9,3-10.6,3-10.6
		s-33.8,11.5-41.3,28.3c-1.5,3.3-2.9,7.5,0.5,10c0.6,0.3,1.2,0.6,1.8,0.7c11.9-18.2,27.4-25.7,27.4-25.7s-0.5,4.3-0.2,7.5
		c26.1-10,57.9-6.7,57.9-6.7s-4.9,3.7-6,5.9c24.2,6.8,32.5,16.5,32.5,16.5s-3.9,0.2-5.9,1.3c8.5,8.4,13.1,17.5,15.4,26.1h5.2
		c-0.8-6.8-3.4-14.5-9-22.7c2.4-1.3,7.4-0.8,7.4-0.8s-14.7-17.7-35.1-23.4C509,207.6,513.8,203.9,513.8,203.9z"/>
</g>
<g>
	<path class="st4" d="M133.6,408.3l1.5,1.9l0.2,0.4l-1.2,0.3c0.7,0.2,1.1,0.4,1.4,0.7c0.3,0.2,0.5,0.5,0.7,0.7
		c0.2,0.4,0.2,0.8,0,1.2c-0.2,0.4-0.6,0.7-1,1c-1.2,0.7-2.6,0.8-4,0.5c-1.3-0.3-2.1-0.9-2.6-1.8c-0.1-0.1-0.1-0.3-0.2-0.4
		c0-0.2-0.1-0.4-0.1-0.6l-1.4,0.3c-0.5,0.1-0.8,0.2-1.1,0.3c-0.1,0.1-0.2,0.2-0.3,0.3c0,0.1,0,0.4,0.2,0.8l-0.3,0.1l-1.9-3.5
		l0.3-0.1c0.1,0.3,0.4,0.4,0.6,0.5c0.3,0.1,0.7,0.1,1.4-0.1l6.3-1.4c0.5-0.1,0.8-0.2,1-0.3c0.1,0,0.1-0.1,0.2-0.2c0-0.1,0-0.1,0-0.2
		c-0.1-0.2-0.1-0.3-0.2-0.5L133.6,408.3L133.6,408.3z M129.1,412c-0.1,0.2-0.2,0.4-0.2,0.6c0,0.1,0,0.3,0.1,0.4
		c0.1,0.1,0.2,0.3,0.3,0.3c0.1,0.1,0.4,0.2,0.7,0.2c0.3,0.1,0.7,0.1,1.2,0.1c0.5,0,0.9-0.1,1.5-0.2c0.5-0.1,1-0.3,1.4-0.5
		c0.3-0.2,0.5-0.4,0.6-0.6c0.1-0.2,0.1-0.4,0-0.6c-0.1-0.2-0.2-0.3-0.3-0.4c-0.2-0.1-0.6-0.2-1-0.3L129.1,412L129.1,412z
		 M138.8,416.9l-4.1,1.1c2.2-0.2,3.6-0.2,4.3-0.1c0.4,0.1,0.6,0.3,0.8,0.5c0.1,0.2,0.1,0.4,0.1,0.5c-0.1,0.2-0.2,0.3-0.5,0.5
		c-0.4,0.2-0.8,0.3-1.2,0.3c-0.3,0-0.4-0.1-0.5-0.3c-0.1-0.2-0.1-0.4,0-0.5c0.1-0.1,0.1-0.2,0.2-0.3c0,0,0-0.1,0-0.1
		c0,0-0.1-0.1-0.1-0.1c-0.1-0.1-0.3-0.1-0.6-0.2c-0.4,0-0.9,0-1.3,0c-0.6,0-1.1,0.1-1.5,0.2c-0.4,0.1-1.1,0.2-2.1,0.5l-0.9-1.5
		l4.8-1.4c0.4-0.1,0.6-0.2,0.7-0.2c0.1,0,0.2-0.1,0.2-0.2c0-0.1,0.1-0.2,0-0.2c0-0.2-0.1-0.3-0.2-0.5l0.2,0l1.5,1.7L138.8,416.9
		L138.8,416.9z M137.6,422.9c-0.2,0.1-0.5,0.2-0.7,0.3c-0.3,0.2-0.5,0.4-0.6,0.7c-0.1,0.3,0,0.6,0.2,0.9c0.2,0.3,0.4,0.5,0.7,0.8
		c0.3,0.2,0.8,0.4,1.4,0.6l-0.1,0.3c-0.9-0.1-1.6-0.4-2.1-0.7c-0.5-0.3-1-0.8-1.3-1.3c-0.4-0.7-0.5-1.3-0.4-1.8
		c0.2-0.5,0.5-0.8,0.9-1.1c0.7-0.4,1.5-0.6,2.4-0.6c0.9,0,1.8,0.2,2.6,0.7c0.8,0.4,1.5,1,1.9,1.7c0.2,0.4,0.3,0.7,0.2,1
		c-0.1,0.3-0.2,0.5-0.5,0.7c-0.3,0.2-0.7,0.3-1.1,0.3c-0.5,0-1-0.1-1.5-0.4c-0.5-0.2-0.9-0.5-1.3-0.9
		C138.2,423.7,137.9,423.3,137.6,422.9z M138,422.8c0.2,0.3,0.5,0.5,0.7,0.7c0.2,0.1,0.5,0.3,0.8,0.3c0.3,0.1,0.7,0.1,1.1,0
		c0.4,0,0.7-0.2,1-0.3c0.1-0.1,0.2-0.1,0.2-0.3c0-0.1,0-0.2,0-0.3c-0.1-0.2-0.4-0.3-0.8-0.4C140.2,422.4,139.2,422.5,138,422.8
		L138,422.8z M146.3,429.3l-2.1,0.9L144,430c0.5-0.3,0.8-0.7,0.9-1.2c0.1-0.5,0.1-0.8-0.1-1.1c-0.1-0.2-0.3-0.3-0.5-0.4
		c-0.2-0.1-0.4,0-0.5,0.1c-0.1,0.1-0.2,0.2-0.3,0.3c-0.1,0.2-0.2,0.4-0.3,0.7c-0.3,1.1-0.5,1.8-0.7,2.1c-0.2,0.3-0.4,0.6-0.7,0.7
		c-0.3,0.2-0.7,0.3-1.1,0.3c-0.4,0-0.8-0.1-1.2-0.3c-0.4-0.2-0.7-0.5-0.9-0.9c-0.2-0.3-0.3-0.6-0.4-1c0-0.2-0.1-0.4-0.2-0.6
		c0-0.1-0.1-0.2-0.2-0.2c-0.1,0-0.2-0.1-0.3-0.1l-0.1-0.2l2.3-1l0.1,0.2c-0.4,0.5-0.7,0.8-0.8,1.1c-0.1,0.3-0.2,0.5-0.2,0.8
		c0,0.3,0.1,0.5,0.2,0.7c0.1,0.2,0.3,0.4,0.6,0.4c0.2,0.1,0.5,0,0.7-0.1c0.2-0.1,0.4-0.3,0.5-0.5c0.1-0.2,0.3-0.6,0.4-1.2
		c0.2-0.8,0.4-1.4,0.6-1.7c0.1-0.2,0.3-0.4,0.6-0.6c0.5-0.3,0.9-0.3,1.4-0.2c0.5,0.1,0.9,0.5,1.3,1.1c0.2,0.3,0.3,0.7,0.5,1
		c0.1,0.2,0.1,0.4,0.2,0.5c0.1,0.2,0.3,0.3,0.5,0.3L146.3,429.3L146.3,429.3z M144.2,433.6c-0.2,0.1-0.5,0.2-0.7,0.4
		c-0.3,0.2-0.5,0.4-0.6,0.7c-0.1,0.3,0,0.6,0.2,0.9c0.2,0.3,0.4,0.5,0.8,0.7c0.3,0.2,0.8,0.4,1.4,0.5l0,0.3
		c-0.9-0.1-1.6-0.3-2.1-0.6c-0.5-0.3-1-0.7-1.3-1.3c-0.4-0.7-0.6-1.3-0.4-1.8c0.2-0.5,0.5-0.9,0.9-1.1c0.7-0.4,1.5-0.7,2.4-0.7
		c0.9,0,1.8,0.2,2.7,0.6c0.8,0.4,1.5,1,1.9,1.7c0.2,0.3,0.3,0.7,0.3,0.9c0,0.3-0.2,0.5-0.5,0.7c-0.3,0.2-0.7,0.3-1,0.3
		c-0.5,0-1-0.1-1.5-0.3c-0.5-0.2-0.9-0.5-1.3-0.9C144.8,434.3,144.5,434,144.2,433.6z M144.5,433.4c0.3,0.3,0.5,0.6,0.8,0.7
		c0.2,0.1,0.5,0.2,0.8,0.3c0.3,0.1,0.7,0.1,1.1,0c0.4,0,0.7-0.2,1-0.4c0.1-0.1,0.2-0.2,0.2-0.3c0-0.1,0-0.2-0.1-0.3
		c-0.1-0.2-0.4-0.3-0.8-0.4C146.7,433,145.7,433.1,144.5,433.4L144.5,433.4z M152.1,438.3l-3.1,1c1.1,0,1.9,0,2.3,0.1
		c0.7,0.1,1.1,0.2,1.5,0.4c0.3,0.2,0.6,0.4,0.7,0.6c0.1,0.2,0.2,0.5,0.1,0.7c-0.1,0.3-0.2,0.5-0.5,0.6c-0.2,0.2-0.5,0.3-0.9,0.4
		l-3.1,1c-0.2,0-0.3,0.1-0.5,0.2c0,0-0.1,0.1-0.1,0.1c0,0,0,0.1,0,0.1c0,0,0.1,0.1,0.1,0.1c0.2,0.1,0.5,0.1,0.8,0.1
		c0.1,0,0.2,0,0.4,0l0,0.3c-1.4,0.1-2.3-0.2-2.8-0.9c-0.2-0.2-0.2-0.5-0.2-0.7c0-0.2,0.2-0.4,0.3-0.5c0.2-0.1,0.5-0.2,0.9-0.4l3.1-1
		c0.2,0,0.3-0.1,0.4-0.2c0,0,0.1-0.1,0.1-0.1c0-0.1,0-0.1,0-0.2c-0.1-0.2-0.3-0.3-0.7-0.4c-0.9-0.2-2.1-0.2-3.5,0l-2.2,0.7l-1-1.6
		l4.7-1.5c0.5-0.1,0.8-0.3,0.9-0.4c0.1,0,0.1-0.1,0.1-0.2c0-0.1,0-0.2,0-0.2c-0.1-0.2-0.1-0.3-0.2-0.4l0.3-0.1l1.7,1.8L152.1,438.3
		L152.1,438.3z M158.4,444.4l-2,0.6l0.5,0.8l-0.8,0.3l-0.5-0.8l-4.2,1.4c-0.2,0.1-0.4,0.1-0.6,0.2c-0.1,0-0.1,0.1-0.1,0.1
		c0,0.1,0,0.1,0,0.2c0,0.1,0.1,0.1,0.2,0.2c0.3,0.1,0.7,0.1,1.2,0.1l0,0.3c-0.7,0.1-1.2,0-1.7-0.2c-0.5-0.2-0.8-0.4-1-0.8
		c-0.2-0.3-0.3-0.5-0.2-0.8c0-0.2,0.2-0.5,0.4-0.6c0.2-0.2,0.6-0.3,1-0.5l4-1.3l-0.6-0.8l0.5-0.2c0.5,0.4,1.1,0.7,1.6,0.9
		c0.5,0.2,1.2,0.3,2.1,0.4L158.4,444.4L158.4,444.4z M154.8,449.5c-0.3,0.1-0.5,0.3-0.7,0.4c-0.3,0.2-0.5,0.5-0.5,0.8
		c-0.1,0.3,0,0.6,0.2,0.9c0.2,0.3,0.5,0.5,0.8,0.7c0.3,0.2,0.8,0.3,1.4,0.5l0,0.3c-0.9-0.1-1.6-0.2-2.1-0.5c-0.6-0.3-1-0.7-1.4-1.2
		c-0.5-0.7-0.6-1.2-0.5-1.7c0.1-0.5,0.4-0.9,0.8-1.2c0.7-0.5,1.5-0.7,2.4-0.8c0.9-0.1,1.8,0.1,2.7,0.4c0.9,0.4,1.5,0.9,2,1.6
		c0.2,0.3,0.3,0.6,0.3,0.9c0,0.3-0.2,0.5-0.4,0.7c-0.3,0.2-0.6,0.3-1,0.3c-0.5,0-1,0-1.5-0.2c-0.5-0.2-1-0.5-1.4-0.8
		C155.5,450.2,155.1,449.9,154.8,449.5z M155.2,449.3c0.3,0.3,0.6,0.5,0.8,0.7c0.2,0.1,0.5,0.2,0.8,0.3c0.3,0,0.7,0,1.1,0
		c0.4-0.1,0.7-0.2,1-0.4c0.1-0.1,0.2-0.2,0.2-0.3c0-0.1,0-0.2-0.1-0.3c-0.1-0.2-0.4-0.3-0.9-0.4
		C157.4,448.8,156.4,448.9,155.2,449.3L155.2,449.3z M168.2,455.3l-8.1,2.9c-0.5,0.2-0.8,0.3-0.9,0.4c0,0-0.1,0.1-0.1,0.1
		c0,0.1,0,0.1,0,0.1c0,0.1,0.1,0.1,0.3,0.2c0.2,0.1,0.6,0.1,1,0.1l0,0.3c-1.4,0.2-2.3-0.1-2.8-0.8c-0.2-0.2-0.2-0.5-0.2-0.7
		c0-0.2,0.2-0.4,0.3-0.5c0.2-0.1,0.5-0.3,0.9-0.4l0.7-0.3c-1.2,0.1-2.1,0.1-2.7,0c-0.4-0.1-0.7-0.3-0.9-0.6c-0.2-0.3-0.3-0.7-0.2-1
		c0.1-0.4,0.4-0.7,0.8-1.1c0.6-0.4,1.3-0.7,2-0.9c0.7-0.2,1.4-0.2,2.1-0.1c0.6,0.1,1.1,0.2,1.5,0.4c0.4,0.2,0.7,0.4,0.9,0.7
		c0.1,0.1,0.2,0.3,0.2,0.5c0,0.2,0,0.4-0.1,0.7l1.8-0.6c0.4-0.2,0.7-0.3,0.9-0.4c0.1-0.1,0.2-0.2,0.2-0.3c0-0.1,0-0.3-0.1-0.4
		c-0.1-0.1-0.1-0.1-0.2-0.2l0.3-0.1l1.8,1.7L168.2,455.3L168.2,455.3z M162.5,455.4c0.2-0.2,0.4-0.4,0.4-0.5c0-0.2,0-0.3-0.1-0.5
		c-0.1-0.1-0.3-0.2-0.5-0.3c-0.5-0.1-1.2,0-2.2,0.2c-1,0.3-1.8,0.6-2.3,1c-0.2,0.1-0.3,0.3-0.3,0.4c0,0.1,0,0.2,0,0.3
		c0.1,0.1,0.3,0.2,0.5,0.3c0.5,0.1,1.3,0.1,2.3-0.1C161.3,456,162,455.7,162.5,455.4L162.5,455.4z M172.8,461.3l-4.3,1.7
		c0.6,0,1,0.1,1.3,0.3c0.3,0.1,0.5,0.3,0.7,0.5c0.4,0.5,0.5,0.9,0.3,1.4c-0.2,0.5-0.5,0.9-0.9,1.2c-1.1,0.8-2.3,1.1-3.7,1
		c-1.3-0.1-2.2-0.6-2.9-1.5c-0.5-0.6-0.8-1.5-1-2.5l7.6-3c0.4-0.1,0.6-0.3,0.7-0.3c0.1-0.1,0.1-0.2,0.1-0.3c0-0.2-0.1-0.4-0.3-0.6
		l0.3-0.1l1.8,1.7C172.5,461,172.8,461.3,172.8,461.3z M163.3,465c0,0.2,0.1,0.4,0.2,0.6c0.1,0.2,0.3,0.3,0.5,0.4
		c0.3,0.1,0.7,0.2,1.3,0.1c0.6,0,1.2-0.2,1.7-0.4c0.6-0.2,1.2-0.5,1.7-0.9c0.3-0.2,0.4-0.4,0.5-0.7c0.1-0.2,0-0.4-0.1-0.6
		c-0.2-0.3-0.5-0.4-0.9-0.4c-0.3,0-0.8,0.1-1.4,0.4L163.3,465L163.3,465z M171.4,466.2l1.9,1.4c-0.1,0.3-0.2,0.5-0.3,0.7
		c-0.2,0.3-0.5,0.7-1,1.1c-0.9,0.8-1.8,1.7-2.9,2.6c0.9,0,2-0.1,3.3-0.3c0.3,0,0.7-0.2,1-0.4c0.1-0.1,0.2-0.3,0.2-0.6
		c0-0.3,0-0.5,0-0.6c0.2-0.3,0.5-0.5,0.9-0.5c0.2,0,0.5,0.1,0.6,0.3c0.2,0.2,0.2,0.5,0.2,0.7c0,0.3-0.2,0.5-0.4,0.7
		c-0.3,0.2-0.6,0.4-1.1,0.5c-0.5,0.1-1.3,0.3-2.6,0.4c-1.4,0.2-2.9,0.2-4.3,0.2c-0.8,0-1.4-0.1-1.9-0.2c-0.4-0.1-0.8-0.2-1.2-0.4
		c-0.2-0.1-0.4-0.2-0.5-0.4c-0.2-0.2-0.2-0.5-0.2-0.7c0-0.3,0.2-0.5,0.4-0.7c0.2-0.2,0.4-0.2,0.7-0.2c0.2,0,0.5,0.1,0.6,0.3
		c0.2,0.2,0.2,0.5,0.1,0.9c-0.1,0.3-0.1,0.4,0,0.5c0.1,0.1,0.2,0.2,0.3,0.2c0.2,0.1,0.4,0.1,0.8,0.1c0.5-0.4,0.9-0.6,1.1-0.8
		c0.3-0.3,0.8-0.7,1.4-1.2l2.1-1.8c0.4-0.4,0.6-0.7,0.7-1c0-0.2,0-0.4-0.1-0.6c-0.1-0.1-0.1-0.1-0.2-0.2L171.4,466.2L171.4,466.2z"
		/>
</g>
<g>
	<path class="st5" d="M164.5,489.3h28c0.9,0,2-0.1,2.8,0.2c1.9,0.7,0.4,7.7,3.8,8c33.7,0,67.5,0,101.2,0.1c0.4,1.2,1.5,0.8,2.7,0.8
		c0.5-0.1,1.1-0.1,1.7-0.2c0.6-0.1,1.2-0.1,1.9-0.2c0.7-0.3,1.6-0.2,2.5-0.2c1.1-0.5,3-0.2,4.3-0.2c1.1-0.5,2.9-0.2,4.1-0.1
		c3.6,0.3,6.8,0.5,10.1,1.3l4.3,1.4c0.4-1.4,2.3-10.2,2.9-10.6c0.8-0.6,3.7-0.3,4.9-0.3h61.4v0.4c-0.5,2.5-1.1,4.9-1.6,7.4
		c3.7,0.4,7.9,0.2,11.8,0.2c1.3,0,3.4-0.3,4.4,0.3c1.2,0.7,1.6,6.6,1.9,8.2c0.2,0.8,0.4,1.7,0.6,2.5h0.4v-0.2
		c1.4-1.5,1.7-5.5,2.2-7.6c0.2-1,0.5-1.9,0.7-2.9h40.2c6.4,0,14.1-0.7,19.6,1c4.3,1.3,8.5,4.2,11,8.1c3.6,5.5,4.7,13.2,2.1,19.7
		c-0.6,1.5-1.6,2.8-2.4,4.1c-0.6,0.9-3.7,4.3-3.7,5c-0.1,1.3,1.7,3.6,2.4,4.8c3.2,5.6,6.5,11.3,9.7,16.9l7.5,13.1
		c0.1,0.3,0.3,0.8,0.6,0.8v0.4H481c-2,0-7.8,0.4-9.1-0.3c-1-0.5-2.1-3.1-2.7-4c-0.9-1.6-7-12.8-8-12.8v0.2c-0.8,1.1-1.7,6.8-2.4,7.2
		c-1.1,0.6-3.2,0.3-4.6,0.3c-4,0-8,0-12,0c-11.1,0-22.2,0.2-33.4,0.2c-3,0-5.9,0-8.9,0c-1.4,0-2.9,0.2-4.1-0.2
		c-2.2-0.6-0.1-7.6-3.1-7.8c-0.9-0.1-2-0.2-2.8,0.2c-0.6,0.3-0.9,1-1.3,1.5c-0.7,1.1-2.9,5.5-3.8,6c-0.4,0.1-0.7,0.2-1.1,0.2
		c-7.4,0-14.7,0-22.1,0c-14.2,0-28.6,0.2-43.1,0.2c0-0.3,0.2-1.2-0.2-1.2v-0.2c-12.8,2.5-29.7,2.6-37.5-8.5c-0.7-0.9-3.1-4-3.1-4.9
		c-1.3,0.7-3.3,11.3-3.7,13.4c-0.1,0.3-0.1,1.3-0.4,1.3v0.2h-34.2c0-2,0.6-3.7,0.6-5.6c-2.2,0.6-4,2.1-6,3c-2.3,1-4.8,1.5-7.4,2
		c-5.4,1.2-11.3,0.5-16.9,0.3c-0.9,0-1.9,0.2-2.9,0.2c-6,0-12,0-17.9,0h-15.5c-0.4,0-1.7,0.1-1.7-0.2c-0.9-1.6-0.9-7.5-1.9-8.3
		c-0.7-0.6-4.7-0.4-5.7-0.2c-1.4,0.3-7.8,11.7-9.1,13.7c-0.7,1-1.7,3.2-2.6,3.9c-1,0.6-6.8,0.3-8.5,0.3c-9.9,0-19.7-0.2-29.5-0.2
		V571h0.2c1.8-3,3.6-6.1,5.5-9.1c3.8-6.3,7.7-12.6,11.5-19C142.7,525,153.6,507.2,164.5,489.3L164.5,489.3z"/>
	<path class="st6" d="M161.1,485.9h28c0.9,0,2-0.1,2.8,0.2c1.9,0.7,0.4,7.7,3.8,8c33.7,0,67.5,0,101.2,0.1c0.4,1.2,1.5,0.8,2.7,0.8
		c0.5-0.1,1.1-0.1,1.6-0.2c0.6-0.1,1.2-0.1,1.9-0.2c0.7-0.3,1.7-0.2,2.5-0.2c1.1-0.5,3-0.2,4.3-0.2c1.1-0.5,2.9-0.2,4.1-0.1
		c3.6,0.3,6.8,0.5,10.1,1.3c1.4,0.5,2.9,0.9,4.3,1.4c0.4-1.4,2.3-10.2,2.9-10.6c0.8-0.6,3.7-0.3,4.9-0.3h61.4v0.4
		c-0.5,2.5-1.1,4.9-1.6,7.4c3.7,0.4,7.9,0.2,11.8,0.2c1.3,0,3.4-0.3,4.4,0.3c1.2,0.7,1.6,6.6,1.9,8.2c0.2,0.8,0.4,1.7,0.6,2.5h0.4
		v-0.2c1.4-1.5,1.7-5.5,2.2-7.6c0.2-1,0.5-1.9,0.7-2.9h40.2c6.4,0,14.1-0.7,19.6,1c4.3,1.3,8.5,4.2,11,8.1
		c3.6,5.5,4.7,13.2,2.1,19.7c-0.6,1.5-1.6,2.8-2.4,4.1c-0.6,0.9-3.7,4.3-3.7,5c0,1.3,1.7,3.6,2.4,4.8c3.2,5.6,6.5,11.3,9.7,16.9
		l7.5,13.1c0.2,0.3,0.3,0.8,0.6,0.8v0.4h-27.4c-2,0-7.8,0.4-9.2-0.3c-1-0.5-2.1-3.1-2.7-4c-0.9-1.6-7-12.8-8-12.8v0.2
		c-0.8,1.1-1.7,6.8-2.4,7.2c-1.1,0.6-3.2,0.3-4.6,0.3c-4,0-8,0-12,0c-11.1,0-22.2,0.2-33.4,0.2c-3,0-5.9,0-8.9,0
		c-1.4,0-2.9,0.2-4.1-0.1c-2.2-0.6-0.1-7.6-3.1-7.8c-0.9-0.1-2-0.2-2.7,0.2c-0.6,0.3-0.9,1-1.3,1.5c-0.7,1.1-2.9,5.5-3.8,6
		c-0.4,0.1-0.7,0.2-1.1,0.2c-7.4,0-14.7,0-22.1,0c-14.2,0-28.6,0.2-43.1,0.2c0-0.3,0.1-1.2-0.2-1.2v-0.2
		c-12.8,2.5-29.7,2.6-37.5-8.5c-0.7-0.9-3.1-4-3.1-4.9c-1.3,0.7-3.3,11.3-3.7,13.4c-0.1,0.3-0.1,1.3-0.4,1.3v0.2h-34.2
		c0-2,0.6-3.7,0.6-5.6c-2.2,0.6-4,2.1-6,3c-2.3,1.1-4.8,1.5-7.4,2c-5.4,1.2-11.3,0.5-16.9,0.3c-0.9,0-1.9,0.2-2.9,0.2
		c-6,0-12,0-17.9,0h-15.5c-0.4,0-1.6,0.1-1.6-0.2c-0.9-1.6-0.9-7.5-1.9-8.3c-0.7-0.6-4.7-0.4-5.7-0.2c-1.4,0.3-7.8,11.7-9.1,13.7
		c-0.7,1-1.7,3.2-2.6,3.9c-1,0.6-6.8,0.3-8.5,0.3c-9.9,0-19.7-0.2-29.5-0.2v-0.4h0.2c1.8-3,3.6-6.1,5.5-9.1
		c3.8-6.3,7.7-12.6,11.5-19C139.3,521.6,150.2,503.7,161.1,485.9L161.1,485.9z"/>
	<path d="M344.4,498.8h42.3c0.3,0,0.8-0.1,0.8,0.2h0.2v0.2c-1.1,1.9-2.6,12.7-3.7,13.3c-1.1,0.6-4.3,0.2-5.8,0.3
		c-5.9,0-11.8,0-17.7,0c-0.5,0-2.5-0.2-2.5,0.4c-0.5,0.9-1.9,5.9-1.9,7H378v0.2c-0.6,1-0.7,2.4-0.9,3.5c-0.6,2.7-1.1,5.5-1.7,8.2
		c-0.1,0.3,0,1.1-0.3,1.1v0.2h-15.9c-1.4,0-4.4-0.3-5.4,0.3c-0.8,0.4-3.6,12.5-4,14.4c-0.4,1.5-0.5,3.6-1.5,4.8
		c-0.5,0.6-15.2,0.4-17.3,0.4V553h0.2c1.2-5,2.3-9.9,3.5-14.9c2.3-9.5,4.5-19,6.8-28.5c0.5-2.3,1.1-4.5,1.6-6.8
		C343.3,501.5,343.4,499.9,344.4,498.8L344.4,498.8z M239.4,507h5.2c0.3,0,0.2-0.1,0.2,0.2h0.2c-1.5,6.9-3,13.9-4.5,20.8
		c-0.5,2.5-1.1,5-1.6,7.4c-1.3,5.3-1.8,9.6-5.9,13.5c-3.6,3.3-8.6,4.2-13.5,4.9c-6,0.8-13.5-0.5-18.1-3c-8.7-4.7-6-16.1-3.9-24.1
		l1.6-7.8l2.3-10.4c0.1-0.3-0.1-1,0.3-1v-0.2h7.4c1.2-0.5,5.2-0.2,6.8-0.2c0.3,0,0.2-0.1,0.2,0.2h0.2v0.2l-0.6,2.3
		c-0.4,1.8-0.7,3.7-1.1,5.5c-1.5,7.1-2.9,14.2-4.4,21.3c-0.1,1,0,2.1,0.3,3c1.1,2.8,4.6,3,7.5,3c1.4-0.8,2.8-1,4-2.4
		c2.8-3.1,3-7.6,3.9-11.6c0.8-3.6,1.8-7.4,2.4-11.1c0.7-3.1,1.3-6.2,2-9.3c0-0.3-0.1-0.8,0.3-0.8v-0.2
		C233,507.2,237.3,507.6,239.4,507L239.4,507z M247.9,507.2h41.2c-0.2,1.5-1.9,10.9-2.6,11.3c-0.9,0.5-2.3,0.3-3.4,0.3
		c-2.1,0-4.1,0-6.2,0c-1,0-2,0.1-3.1,0.1c-0.2,0.1-0.2,0-0.2,0.3L266,552c-0.1,0.3-0.2,0.8-0.6,1c-0.9,0.4-2.3,0.3-3.4,0.3
		c-3.7,0-7.4,0-11.1,0V553h0.2c0.4-4,1.8-7.9,2.6-11.8c1.1-4.8,2.2-9.6,3.3-14.4l1.8-8.1h-13.4c0.5-2.3,0.9-4.5,1.3-6.8
		C247.1,510.3,247.3,508.7,247.9,507.2z M428.7,507.2h14c-2.5,11.6-5,23.2-7.6,34.9c-0.3,1.5-1.9,10.4-2.7,10.9
		c-0.8,0.5-2.3,0.3-3.3,0.3c-3.6,0-7.1,0-10.7,0v-0.4C421.8,537.6,425.3,522.4,428.7,507.2L428.7,507.2z M492.4,562.1
		c0-0.7-2.6-4.9-3.1-5.8c-2.8-5-5.7-10-8.5-15l-3.1-5.4c-0.5-1-1.1-2-1.6-3c-0.2-0.8,0.8-1,1.4-1.3c4.8-2.1,8.2-5.3,8.5-11
		c0.1-2,0-3.9-0.7-5.5c-1.4-3.8-5.7-7-9.7-7.8c-1.4,0-2.9-0.1-4.3-0.1h-23.9c-3.4,15.3-6.7,30.7-10.1,46c3.4,0,6.7,0,10.1,0
		c1.2,0,2.8,0.2,3.8-0.3c0.1-0.1,0.1-0.2,0.2-0.2c0.9-1.8,1.2-4.3,1.6-6.3c0.9-3.9,1.8-7.7,2.8-11.6c0.4-1.5,0.8-3,1.1-4.5v-0.4h0.4
		l0.1,0.4c4.7,7.8,9.3,15.7,14,23.5c1.2,2,2.3,4,3.5,6c0.4,0.6,0.7,1.5,1.4,1.9c1,0.6,3,0.3,4.3,0.3c3.8,0.1,7.9,0.2,12,0.2
		C492.6,562,492.7,562.1,492.4,562.1L492.4,562.1z M470.4,525.2c-0.8,0.6-1.8,0.8-2.6,1.4c-0.5,0.1-1.1,0.1-1.7,0.2
		c-2.9,0-5.7-0.2-8.5-0.2l0.6-3.3c0.3-1.8,0.5-4.2,1.5-5.8h2.3c2.8,0,5.7-0.3,8,0.8C472.9,519.6,472.7,523.4,470.4,525.2z
		 M324.8,509.5c-4.7-2.7-9.7-2.9-15.9-2.9c-2,0.6-4.2,0.7-6.2,1.3c-4.9,1.5-9.3,3.8-12.5,8.2c-3.3,4.6-5,10-5.3,16.2
		c-0.1,2-0.2,4,0.1,6c1.5,9,8.6,14.1,17.2,15.4c8.2,1.2,16.2-0.7,22-5.2C335.2,540.1,338.2,517.2,324.8,509.5z M313.4,540.1
		c-0.9,0.9-2,1.6-3.3,2.1c-0.5,0.2-0.9,0.3-1.4,0.5c-2,0-4,0.1-5.5-0.8c-6.4-3.7-2.3-17.1,1.5-21.1c1.3-1.3,2.9-2.3,4.6-2.7
		c0.6-0.1,1.2-0.2,1.8-0.3c1.7,0.4,3.5,0.4,4.9,1.5c1.7,1.4,2.1,3.1,2.4,5.3C319.2,530.5,317.3,536.3,313.4,540.1L313.4,540.1z
		 M194.9,547.8c-1-4.8-1.9-9.6-2.9-14.4c-1.6-8-3.2-16.1-4.7-24.1c-0.5-2.3-0.9-4.5-1.4-6.8c-0.3-1.3-0.4-2.6-0.9-3.7
		c0-0.3-2.8-0.2-3.3-0.2c-1,0.3-2.3,0.2-3.5,0.2c-2,0-4,0-6,0c-1,0-2.2-0.1-3,0.4c-1.2,0.9-2.4,3.5-3.2,4.8
		c-2.4,3.9-4.8,7.8-7.2,11.8L139,547.9c-2,3.2-3.9,6.4-5.9,9.6c-0.9,1.4-2,2.9-2.6,4.4h-0.2v0.4c2.5,0,16.6,0.4,17.6-0.4
		c1.3-1.1,1.9-2.9,2.7-4.3c1.1-1.8,7-12.3,8.2-12.5c1.5-0.3,3.3-0.1,4.9-0.1h9.1c1.3,0,3.3-0.3,4.4,0.3l0.1,0.1c1,1.3,1.3,7,2.4,7.6
		c1,0.5,2.9,0.3,4.2,0.3c4.1,0,8.1,0,12.2,0C195.7,551.4,195.3,549.6,194.9,547.8z M174.9,533c-1.1,0.6-7.2,0.2-8.9,0.2
		c0-0.9,0.9-2,1.3-2.7c1.9-3.3,3.8-6.7,5.7-10c1.2,2,1.1,5.1,1.5,7.4c0.2,1.5,0.4,2.9,0.7,4.4C175.2,532.4,175.2,532.8,174.9,533z
		 M408.3,507.6c0-0.4-0.7-0.4-1-0.4c-4.2,0-8.4,0-12.6,0c-9.3,15.2-18.6,30.4-27.8,45.6h-0.2v0.4c2.2,0,13.7,0.4,14.7-0.4
		c1.3-1.1,2.8-4.1,3.8-5.6c0.3-0.4,0.5-1,1-1.2c1.2-0.5,3.2-0.2,4.7-0.2h10.3v0.2c0.3,0,0.2-0.1,0.2,0.2c0.1,1.5,0.6,5.4,1.2,6.6
		c0,0.4,0.7,0.4,1,0.4l13.2,0C413.9,538,411.1,522.8,408.3,507.6L408.3,507.6z M399.3,535.7c-0.6,0.6-6.7,0.3-8.1,0.3
		c0-0.9,1.1-2.2,1.5-3c1.7-2.9,3.4-5.7,5.1-8.6C398.2,525.5,399.8,535.2,399.3,535.7L399.3,535.7z"/>
	<g>
		<path class="st4" d="M340.9,495.3h42.3c0.3,0,0.8-0.1,0.8,0.2h0.2v0.2c-1.1,1.9-2.6,12.7-3.7,13.3c-1.1,0.6-4.3,0.2-5.8,0.3
			c-5.9,0-11.8,0-17.7,0c-0.5,0-2.5-0.2-2.5,0.4c-0.5,0.9-1.9,5.9-1.9,7h21.9v0.2c-0.6,1-0.7,2.4-0.9,3.5c-0.6,2.7-1.1,5.5-1.7,8.2
			c-0.1,0.3,0,1.1-0.3,1.1v0.2h-15.9c-1.4,0-4.4-0.3-5.4,0.3c-0.8,0.4-3.6,12.5-4,14.4c-0.4,1.5-0.5,3.6-1.5,4.8
			c-0.5,0.6-15.2,0.4-17.3,0.4v-0.2h0.2c1.2-5,2.3-9.9,3.5-14.9l6.8-28.5c0.5-2.3,1.1-4.5,1.6-6.8
			C339.9,498.1,340,496.4,340.9,495.3L340.9,495.3z M236,503.6h5.2c0.3,0,0.2-0.1,0.2,0.2h0.2l-4.5,20.8c-0.5,2.5-1.1,5-1.6,7.4
			c-1.3,5.3-1.8,9.6-5.9,13.5c-3.6,3.3-8.6,4.2-13.5,4.9c-6,0.8-13.5-0.5-18.1-3c-8.7-4.7-6-16.1-3.9-24.1c0.5-2.6,1.1-5.2,1.6-7.8
			c0.8-3.5,1.5-6.9,2.3-10.4c0.1-0.3-0.1-1,0.3-1V504h7.4c1.2-0.5,5.2-0.2,6.8-0.2c0.3,0,0.2-0.1,0.2,0.2h0.2v0.2l-0.6,2.3
			c-0.4,1.8-0.7,3.7-1.1,5.5c-1.5,7.1-2.9,14.2-4.4,21.3c-0.1,1-0.1,2.1,0.3,3c1.1,2.8,4.6,3,7.5,3c1.4-0.8,2.8-1,4-2.4
			c2.8-3.1,3-7.6,3.9-11.6c0.8-3.6,1.8-7.4,2.4-11.1c0.7-3.1,1.3-6.2,2-9.3c0-0.3-0.1-0.8,0.3-0.8v-0.2
			C229.6,503.8,233.9,504.2,236,503.6L236,503.6z M244.4,503.8h41.2c-0.2,1.5-1.9,10.9-2.6,11.3c-0.9,0.5-2.3,0.3-3.4,0.3
			c-2.1,0-4.1,0-6.2,0c-1,0-2,0.1-3.1,0.1c-0.2,0.1-0.2,0-0.2,0.3l-7.6,32.8c-0.1,0.3-0.2,0.8-0.6,1c-0.9,0.4-2.3,0.3-3.4,0.3
			c-3.7,0-7.4,0-11.1,0v-0.2h0.2c0.4-4,1.8-7.9,2.6-11.8c1.1-4.8,2.2-9.6,3.3-14.4l1.8-8.1H242c0.5-2.3,0.9-4.5,1.3-6.8
			C243.7,506.9,243.8,505.3,244.4,503.8L244.4,503.8z M425.3,503.8h14c-2.5,11.6-5,23.2-7.6,34.9c-0.3,1.5-1.9,10.4-2.7,10.9
			c-0.8,0.5-2.3,0.3-3.3,0.3c-3.6,0-7.1,0-10.7,0v-0.4C418.4,534.2,421.8,519,425.3,503.8L425.3,503.8z M489,558.6
			c0-0.7-2.6-4.9-3.1-5.7l-8.5-15l-3.1-5.4c-0.5-1-1-2-1.6-3c-0.2-0.8,0.8-1,1.4-1.3c4.8-2.1,8.2-5.3,8.5-11c0.1-2-0.1-3.9-0.7-5.5
			c-1.4-3.8-5.7-7-9.7-7.8c-1.4,0-2.9-0.1-4.3-0.1H444c-3.4,15.3-6.7,30.7-10.1,46c3.4,0,6.7,0,10.1,0c1.2,0,2.8,0.2,3.8-0.3
			c0.1-0.1,0.1-0.2,0.2-0.2c0.9-1.8,1.2-4.3,1.6-6.3c0.9-3.9,1.8-7.7,2.8-11.6c0.4-1.5,0.8-3,1.1-4.5v-0.4h0.4
			c0.1,0.1,0.1,0.3,0.1,0.4l14,23.5c1.2,2,2.3,4,3.5,6c0.4,0.6,0.7,1.5,1.4,1.9c1,0.6,3,0.3,4.3,0.3c3.8,0.1,7.9,0.2,12,0.2
			C489.2,558.5,489.2,558.6,489,558.6L489,558.6z M467,521.8c-0.8,0.6-1.8,0.8-2.6,1.4c-0.5,0.1-1.1,0.1-1.7,0.2
			c-2.9,0-5.7-0.2-8.5-0.2c0.2-1.1,0.4-2.2,0.6-3.3c0.3-1.8,0.5-4.2,1.5-5.8h2.3c2.8,0,5.7-0.3,8,0.8
			C469.4,516.1,469.2,520,467,521.8L467,521.8z M321.3,506.1c-4.7-2.7-9.7-2.9-15.9-2.9c-2,0.6-4.2,0.7-6.2,1.3
			c-4.9,1.5-9.3,3.8-12.5,8.2c-3.3,4.6-5,10-5.3,16.2c-0.1,2-0.2,4,0.1,6c1.5,9,8.6,14.1,17.3,15.4c8.1,1.2,16.2-0.7,22-5.2
			C331.7,536.6,334.7,513.8,321.3,506.1L321.3,506.1z M309.9,536.7c-0.9,0.9-2.1,1.6-3.3,2.1c-0.5,0.2-0.9,0.3-1.4,0.5
			c-2,0-4,0.1-5.5-0.8c-6.4-3.7-2.3-17.1,1.5-21.1c1.3-1.3,2.9-2.3,4.6-2.7c0.6-0.1,1.2-0.2,1.8-0.3c1.7,0.4,3.5,0.4,4.9,1.5
			c1.7,1.4,2.1,3.1,2.4,5.3C315.7,527.1,313.9,532.9,309.9,536.7L309.9,536.7z M191.5,544.4c-1-4.8-1.9-9.6-2.9-14.4
			c-1.6-8-3.2-16.1-4.7-24.1c-0.5-2.3-0.9-4.5-1.4-6.8c-0.3-1.3-0.4-2.6-0.9-3.7c0-0.3-2.8-0.2-3.3-0.2c-1,0.3-2.3,0.2-3.5,0.2
			c-2,0-4,0-6,0c-1,0-2.2-0.1-3,0.4c-1.2,0.9-2.4,3.5-3.2,4.8c-2.4,3.9-4.8,7.8-7.2,11.8l-19.8,32.2c-2,3.2-3.9,6.4-5.9,9.6
			c-0.9,1.4-2,2.9-2.6,4.4h-0.2v0.4c2.5,0,16.6,0.4,17.6-0.4c1.3-1.1,1.9-2.9,2.7-4.3c1.1-1.8,7-12.3,8.2-12.5
			c1.5-0.3,3.3-0.1,4.9-0.1h9.1c1.3,0,3.3-0.3,4.4,0.3c0.1,0,0.1,0.1,0.1,0.1c1,1.3,1.3,7,2.4,7.6c1,0.5,2.9,0.3,4.2,0.3
			c4.1,0,8.1,0,12.2,0C192.3,548,191.9,546.2,191.5,544.4z M171.5,529.5c-1.1,0.6-7.2,0.2-8.9,0.2c0-0.9,0.9-2,1.3-2.7
			c1.9-3.3,3.8-6.7,5.7-10c1.2,2,1.1,5.1,1.5,7.4c0.2,1.5,0.4,2.9,0.7,4.4C171.8,529,171.8,529.4,171.5,529.5z M404.8,504.2
			c0-0.4-0.7-0.4-1-0.4c-4.2,0-8.4,0-12.6,0c-9.3,15.2-18.6,30.4-27.8,45.6h-0.2v0.4c2.2,0,13.7,0.4,14.7-0.4
			c1.3-1.1,2.8-4.1,3.8-5.6c0.3-0.4,0.5-1,1-1.2c1.2-0.5,3.2-0.2,4.7-0.2h10.3v0.2c0.3,0,0.2-0.1,0.2,0.2c0.1,1.5,0.6,5.4,1.2,6.6
			c0,0.4,0.7,0.4,1,0.4l13.2,0C410.5,534.6,407.7,519.4,404.8,504.2L404.8,504.2z M395.8,532.3c-0.6,0.6-6.7,0.3-8.1,0.3
			c0-0.9,1.1-2.2,1.5-2.9c1.7-2.9,3.4-5.7,5.1-8.6C394.8,522,396.3,531.8,395.8,532.3L395.8,532.3z"/>
	</g>
</g>
</svg>
